<svg width="78" height="78" viewBox="0 0 78 78" fill="none" xmlns="http://www.w3.org/2000/svg">
<g clip-path="url(#clip0_113_233)">
<path d="M77.8986 38.9503C77.8986 51.8098 67.5122 62.3199 54.5291 62.3199C41.6697 62.3199 31.1595 51.8098 31.1595 38.9503C31.1595 26.0909 41.546 15.5808 54.4054 15.5808C67.5122 15.5808 77.8986 26.0909 77.8986 38.9503Z" fill="#FFB600"/>
<path d="M54.5291 15.5808C67.3885 15.5808 77.8986 26.0909 77.8986 38.9503C77.8986 51.8098 67.5122 62.3199 54.5291 62.3199C41.6697 62.3199 31.1595 51.8098 31.1595 38.9503" fill="#F7981D"/>
<path d="M54.5286 15.5808C67.388 15.5808 77.8981 26.0909 77.8981 38.9503C77.8981 51.8098 67.5116 62.3199 54.5286 62.3199" fill="#FF8500"/>
<path d="M23.1222 15.5808C10.3865 15.7045 0 26.0909 0 38.9503C0 51.8098 10.3865 62.3199 23.3695 62.3199C29.4283 62.3199 34.8688 59.9706 39.0729 56.2611C39.9384 55.5192 40.6803 54.6537 41.4222 53.7881H36.5999C35.9817 53.0462 35.3634 52.1807 34.8688 51.4388H43.1533C43.6479 50.6969 44.1424 49.8314 44.5134 48.9659H33.5087C33.1377 48.224 32.7668 47.3584 32.5195 46.4929H45.3789C46.1208 44.1436 46.6154 41.6706 46.6154 39.074C46.6154 37.3429 46.3681 35.7355 46.1208 34.1281H31.7776C31.9013 33.2625 32.1486 32.5206 32.3959 31.6551H45.2553C45.008 30.7896 44.637 29.924 44.2661 29.1821H33.385C33.756 28.3166 34.2506 27.5747 34.7452 26.7092H43.0296C42.535 25.8436 41.9168 24.9781 41.1749 24.2362H36.5999C37.3418 23.3707 38.0837 22.6288 38.9492 21.8869C34.8688 18.0538 29.3046 15.8281 23.2459 15.8281C23.2459 15.5808 23.2459 15.5808 23.1222 15.5808Z" fill="#FF5050"/>
<path d="M0 38.9488C0 51.8082 10.3865 62.3183 23.3695 62.3183C29.4283 62.3183 34.8688 59.969 39.0729 56.2595C39.9384 55.5177 40.6803 54.6521 41.4222 53.7866H36.5999C35.9817 53.0447 35.3634 52.1791 34.8688 51.4373H43.1533C43.6479 50.6954 44.1424 49.8298 44.5134 48.9643H33.5087C33.1377 48.2224 32.7668 47.3569 32.5195 46.4913H45.3789C46.1208 44.142 46.6154 41.669 46.6154 39.0724C46.6154 37.3413 46.3681 35.7339 46.1208 34.1265H31.7776C31.9013 33.261 32.1486 32.5191 32.3959 31.6535H45.2553C45.008 30.788 44.637 29.9224 44.2661 29.1806H33.385C33.756 28.315 34.2506 27.5731 34.7452 26.7076H43.0296C42.535 25.8421 41.9168 24.9765 41.1749 24.2346H36.5999C37.3418 23.3691 38.0837 22.6272 38.9492 21.8853C34.8688 18.0522 29.3046 15.8265 23.2459 15.8265H23.1222" fill="#E52836"/>
<path d="M23.3696 62.3183C29.4284 62.3183 34.8689 59.969 39.0729 56.2595C39.9385 55.5177 40.6804 54.6521 41.4223 53.7866H36.6C35.9817 53.0447 35.3635 52.1791 34.8689 51.4373H43.1533C43.6479 50.6954 44.1425 49.8298 44.5135 48.9643H33.5088C33.1378 48.2224 32.7669 47.3569 32.5196 46.4913H45.379C46.1209 44.142 46.6155 41.669 46.6155 39.0724C46.6155 37.3413 46.3682 35.7339 46.1209 34.1265H31.7777C31.9013 33.261 32.1486 32.5191 32.3959 31.6535H45.2554C45.0081 30.788 44.6371 29.9224 44.2662 29.1806H33.3851C33.7561 28.315 34.2507 27.5731 34.7453 26.7076H43.0297C42.5351 25.8421 41.9169 24.9765 41.175 24.2346H36.6C37.3419 23.3691 38.0838 22.6272 38.9493 21.8853C34.8689 18.0522 29.3047 15.8265 23.246 15.8265H23.1223" fill="#CB2026"/>
<path d="M31.6536 44.8839L32.0245 42.7818C31.9008 42.7818 31.6536 42.9055 31.4063 42.9055C30.5407 42.9055 30.4171 42.4109 30.5407 42.1636L31.2826 37.8359H32.6427L33.0137 35.4866H31.7772L32.0245 34.0028H29.5515C29.5515 34.0028 28.0677 42.1636 28.0677 43.1528C28.0677 44.6366 28.9333 45.2548 30.0461 45.2548C30.788 45.2548 31.4063 45.0075 31.6536 44.8839Z" fill="#1D252D"/>
<path d="M32.5195 40.9303C32.5195 44.3924 34.8688 45.258 36.8472 45.258C38.7019 45.258 39.4438 44.887 39.4438 44.887L39.9384 42.5377C39.9384 42.5377 38.5783 43.156 37.3418 43.156C34.6216 43.156 35.1161 41.1776 35.1161 41.1776H40.1857C40.1857 41.1776 40.5567 39.5702 40.5567 38.9519C40.5567 37.3445 39.6911 35.3661 36.9709 35.3661C34.3743 35.1188 32.5195 37.8391 32.5195 40.9303ZM36.8472 37.3445C38.2074 37.3445 37.9601 38.9519 37.9601 39.0756H35.2398C35.2398 38.9519 35.4871 37.3445 36.8472 37.3445Z" fill="#1D252D"/>
<path d="M52.5505 44.8852L53.0451 42.165C53.0451 42.165 51.8086 42.7832 50.9431 42.7832C49.212 42.7832 48.4701 41.4231 48.4701 39.9393C48.4701 36.9718 49.9539 35.3643 51.685 35.3643C52.9215 35.3643 53.9107 36.1062 53.9107 36.1062L54.2816 33.5096C54.2816 33.5096 52.7978 32.8914 51.4377 32.8914C48.5938 32.8914 45.7499 35.3643 45.7499 40.063C45.7499 43.1542 47.2337 45.2562 50.2012 45.2562C51.1904 45.2562 52.5505 44.8852 52.5505 44.8852Z" fill="#1D252D"/>
<path d="M18.0526 35.1176C16.3216 35.1176 15.0851 35.6121 15.0851 35.6121L14.7141 37.7142C14.7141 37.7142 15.827 37.2196 17.4344 37.2196C18.2999 37.2196 19.0418 37.3432 19.0418 38.0851C19.0418 38.5797 18.9182 38.7034 18.9182 38.7034C18.9182 38.7034 18.1763 38.7034 17.8053 38.7034C15.7033 38.7034 13.354 39.5689 13.354 42.4128C13.354 44.6385 14.8378 45.1331 15.7033 45.1331C17.4344 45.1331 18.1763 44.0202 18.2999 44.0202L18.1763 45.0094H20.402L21.3911 38.2088C21.3911 35.2412 18.9182 35.1176 18.0526 35.1176ZM18.5472 40.6817C18.5472 41.0527 18.2999 43.031 16.8162 43.031C16.0743 43.031 15.827 42.4128 15.827 42.0419C15.827 41.4236 16.1979 40.5581 18.0526 40.5581C18.4236 40.6817 18.5472 40.6817 18.5472 40.6817Z" fill="#1D252D"/>
<path d="M23.7404 45.1326C24.3586 45.1326 27.4498 45.2562 27.4498 41.9177C27.4498 38.8265 24.4823 39.4447 24.4823 38.2083C24.4823 37.59 24.9769 37.3427 25.8424 37.3427C26.2134 37.3427 27.5735 37.4664 27.5735 37.4664L27.9444 35.2407C27.9444 35.2407 27.0789 34.9934 25.5951 34.9934C23.7404 34.9934 21.8857 35.7353 21.8857 38.2083C21.8857 41.0522 24.9769 40.8049 24.9769 41.9177C24.9769 42.6596 24.1113 42.7832 23.4931 42.7832C22.3803 42.7832 21.2674 42.4123 21.2674 42.4123L20.8965 44.638C21.0201 44.8853 21.6384 45.1326 23.7404 45.1326Z" fill="#1D252D"/>
<path d="M73.076 33.1396L72.5814 36.4782C72.5814 36.4782 71.5922 35.2417 70.2321 35.2417C68.0064 35.2417 66.0281 37.9619 66.0281 41.1768C66.0281 43.1552 67.0173 45.2572 69.1193 45.2572C70.6031 45.2572 71.4686 44.268 71.4686 44.268L71.3449 45.1335H73.8179L75.6726 33.2633L73.076 33.1396ZM71.9632 39.693C71.9632 41.0531 71.3449 42.7842 69.9848 42.7842C69.1193 42.7842 68.6247 42.0423 68.6247 40.8058C68.6247 38.8275 69.4902 37.591 70.6031 37.591C71.4686 37.591 71.9632 38.2092 71.9632 39.693Z" fill="#1D252D"/>
<path d="M4.5749 45.0099L6.05868 36.1072L6.30598 45.0099H8.03706L11.2519 36.1072L9.89178 45.0099H12.4884L14.4668 33.1396H10.3864L7.91341 40.4349L7.78976 33.1396H4.20396L2.22559 45.0099H4.5749Z" fill="#1D252D"/>
<path d="M42.9061 45.0074C43.6479 40.927 43.7716 37.5885 45.5027 38.2067C45.75 36.5993 46.1209 35.981 46.3682 35.3628C46.3682 35.3628 46.2446 35.3628 45.8736 35.3628C44.7608 35.3628 43.8952 36.8466 43.8952 36.8466L44.1425 35.4864H41.7932L40.1858 45.131H42.9061V45.0074Z" fill="#1D252D"/>
<path d="M58.2383 35.1176C56.5072 35.1176 55.2708 35.6121 55.2708 35.6121L54.8998 37.7142C54.8998 37.7142 56.0126 37.2196 57.6201 37.2196C58.4856 37.2196 59.2275 37.3432 59.2275 38.0851C59.2275 38.5797 59.1038 38.7034 59.1038 38.7034C59.1038 38.7034 58.362 38.7034 57.991 38.7034C55.889 38.7034 53.5397 39.5689 53.5397 42.4128C53.5397 44.6385 55.0235 45.1331 55.889 45.1331C57.6201 45.1331 58.362 44.0202 58.4856 44.0202L58.362 45.0094H60.5876L61.5768 38.2088C61.7005 35.2412 59.1038 35.1176 58.2383 35.1176ZM58.8565 40.6817C58.8565 41.0527 58.6093 43.031 57.1255 43.031C56.3836 43.031 56.1363 42.4128 56.1363 42.0419C56.1363 41.4236 56.5072 40.5581 58.362 40.5581C58.7329 40.6817 58.7329 40.6817 58.8565 40.6817Z" fill="#1D252D"/>
<path d="M63.6786 45.0074C64.4205 40.927 64.5442 37.5885 66.2753 38.2067C66.5225 36.5993 66.8935 35.981 67.1408 35.3628C67.1408 35.3628 67.0171 35.3628 66.6462 35.3628C65.5334 35.3628 64.6678 36.8466 64.6678 36.8466L64.9151 35.4864H62.5658L60.9584 45.131H63.6786V45.0074Z" fill="#1D252D"/>
<path d="M27.8209 43.1528C27.8209 44.6366 28.6865 45.2548 29.7993 45.2548C30.6648 45.2548 31.4067 45.0075 31.654 44.8839L32.025 42.7818C31.9013 42.7818 31.654 42.9055 31.4067 42.9055C30.5412 42.9055 30.4175 42.4109 30.5412 42.1636L31.2831 37.8359H32.6432L33.0142 35.4866H31.7777L32.025 34.0028" fill="#DCE5E5"/>
<path d="M33.7561 40.9303C33.7561 44.3924 34.8689 45.258 36.8473 45.258C38.702 45.258 39.4439 44.887 39.4439 44.887L39.9385 42.5377C39.9385 42.5377 38.5784 43.156 37.3419 43.156C34.6216 43.156 35.1162 41.1776 35.1162 41.1776H40.1858C40.1858 41.1776 40.5568 39.5702 40.5568 38.9519C40.5568 37.3445 39.6912 35.3661 36.971 35.3661C34.3743 35.1188 33.7561 37.8391 33.7561 40.9303ZM36.8473 37.3445C38.2074 37.3445 38.4547 38.9519 38.4547 39.0756H35.2399C35.2399 38.9519 35.4872 37.3445 36.8473 37.3445Z" fill="#DCE5E5"/>
<path d="M52.5505 44.8852L53.0451 42.165C53.0451 42.165 51.8086 42.7832 50.9431 42.7832C49.212 42.7832 48.4701 41.4231 48.4701 39.9393C48.4701 36.9718 49.9539 35.3643 51.685 35.3643C52.9215 35.3643 53.9106 36.1062 53.9106 36.1062L54.2816 33.5096C54.2816 33.5096 52.7978 32.8914 51.4377 32.8914C48.5938 32.8914 46.9863 35.3643 46.9863 40.063C46.9863 43.1542 47.2336 45.2562 50.2012 45.2562C51.1904 45.2562 52.5505 44.8852 52.5505 44.8852Z" fill="#DCE5E5"/>
<path d="M14.7141 37.8358C14.7141 37.8358 15.827 37.3412 17.4344 37.3412C18.2999 37.3412 19.0418 37.4648 19.0418 38.2067C19.0418 38.7013 18.9182 38.8249 18.9182 38.8249C18.9182 38.8249 18.1763 38.8249 17.8053 38.8249C15.7033 38.8249 13.354 39.6905 13.354 42.5344C13.354 44.7601 14.8378 45.2546 15.7033 45.2546C17.4344 45.2546 18.1763 44.1418 18.2999 44.1418L18.1763 45.131H20.402L21.3911 38.3303C21.3911 35.4864 18.9182 35.3628 17.929 35.3628L14.7141 37.8358ZM19.7837 40.6797C19.7837 41.0506 18.2999 43.029 16.8162 43.029C16.0743 43.029 15.827 42.4107 15.827 42.0398C15.827 41.4216 16.1979 40.556 18.0526 40.556C18.4236 40.6797 19.7837 40.6797 19.7837 40.6797Z" fill="#DCE5E5"/>
<path d="M21.0203 44.8853C21.0203 44.8853 21.7622 45.1326 23.8642 45.1326C24.4824 45.1326 27.5736 45.2562 27.5736 41.9177C27.5736 38.8265 24.6061 39.4447 24.6061 38.2083C24.6061 37.59 25.1007 37.3427 25.9662 37.3427C26.3371 37.3427 27.6973 37.4664 27.6973 37.4664L28.0682 35.2407C28.0682 35.2407 27.2027 34.9934 25.7189 34.9934C23.8642 34.9934 23.2459 35.7353 23.2459 38.2083C23.2459 41.0522 25.1007 40.8049 25.1007 41.9177C25.1007 42.6596 24.2351 42.7832 23.6169 42.7832" fill="#DCE5E5"/>
<path d="M72.5812 36.4756C72.5812 36.4756 71.592 35.2391 70.2319 35.2391C68.0062 35.2391 67.2643 37.9594 67.2643 41.1742C67.2643 43.1526 67.017 45.2546 69.1191 45.2546C70.6028 45.2546 71.4684 44.2654 71.4684 44.2654L71.3447 45.131H73.8177L75.6724 33.2607L72.5812 36.4756ZM72.4576 39.6904C72.4576 41.0506 71.3447 42.7817 69.9846 42.7817C69.1191 42.7817 68.6245 42.0398 68.6245 40.8033C68.6245 38.8249 69.49 37.5884 70.6028 37.5884C71.4684 37.5884 72.4576 38.2067 72.4576 39.6904Z" fill="#DCE5E5"/>
<path d="M4.5749 45.0099L6.05868 36.1072L6.30598 45.0099H8.03706L11.2519 36.1072L9.89178 45.0099H12.4884L14.4668 33.1396H11.3756L7.91341 40.4349L7.78976 33.1396H6.42963L2.22559 45.0099H4.5749Z" fill="#DCE5E5"/>
<path d="M40.3093 45.0074H42.9059C43.6478 40.927 43.7715 37.5885 45.5026 38.2067C45.7499 36.5993 46.1208 35.981 46.3681 35.3628C46.3681 35.3628 46.2444 35.3628 45.8735 35.3628C44.7607 35.3628 43.8951 36.8466 43.8951 36.8466L44.1424 35.4864" fill="#DCE5E5"/>
<path d="M54.8998 37.8358C54.8998 37.8358 56.0126 37.3412 57.6201 37.3412C58.4856 37.3412 59.2275 37.4648 59.2275 38.2067C59.2275 38.7013 59.1038 38.8249 59.1038 38.8249C59.1038 38.8249 58.362 38.8249 57.991 38.8249C55.889 38.8249 53.5397 39.6905 53.5397 42.5344C53.5397 44.7601 55.0235 45.2546 55.889 45.2546C57.6201 45.2546 58.362 44.1418 58.4856 44.1418L58.362 45.131H60.5876L61.5768 38.3303C61.5768 35.4864 59.1038 35.3628 58.1147 35.3628L54.8998 37.8358ZM59.9694 40.6797C59.9694 41.0506 58.4856 43.029 57.0018 43.029C56.2599 43.029 56.0126 42.4107 56.0126 42.0398C56.0126 41.4216 56.3836 40.556 58.2383 40.556C58.7329 40.6797 59.9694 40.6797 59.9694 40.6797Z" fill="#DCE5E5"/>
<path d="M61.0818 45.0074H63.6784C64.4203 40.927 64.5439 37.5885 66.275 38.2067C66.5223 36.5993 66.8933 35.981 67.1406 35.3628C67.1406 35.3628 67.0169 35.3628 66.646 35.3628C65.5331 35.3628 64.6676 36.8466 64.6676 36.8466L64.9149 35.4864" fill="#DCE5E5"/>
</g>
<defs>
<clipPath id="clip0_113_233">
<rect width="77.8984" height="77.8984" fill="white"/>
</clipPath>
</defs>
</svg>
