<svg width="32" height="32" viewBox="0 0 32 32" fill="none" xmlns="http://www.w3.org/2000/svg">
<g clip-path="url(#clip0_182_328)">
<path fill-rule="evenodd" clip-rule="evenodd" d="M31.4147 28.1474C31.2022 28.3592 30.9459 28.6301 30.6742 28.9166C29.9962 29.6362 29.1492 30.5307 28.6184 30.8934C25.8252 32.8021 22.0885 31.8888 19.4453 30.7875C15.9585 29.3347 12.1623 26.6568 8.75374 23.2478C5.34199 19.8386 2.66436 16.0412 1.21155 12.5564C0.111551 9.91261 -0.803636 6.17512 1.1053 3.38137C1.4678 2.85012 2.36436 2.00443 3.08299 1.32512C3.37049 1.05424 3.63924 0.798303 3.85174 0.586491C4.229 0.211101 4.73956 0.000366211 5.27177 0.000366211C5.80398 0.000366211 6.31454 0.211101 6.6918 0.586491L11.8311 5.72424C12.2062 6.10149 12.4168 6.61191 12.4168 7.14396C12.4168 7.67601 12.2062 8.18643 11.8311 8.56368L10.4311 9.96086C9.9635 10.425 9.65832 11.0277 9.56091 11.6793C9.46351 12.3308 9.57911 12.9964 9.89049 13.577C11.8161 17.2114 14.7889 20.1837 18.4236 22.1087C19.0041 22.42 19.6695 22.5354 20.3209 22.4378C20.9723 22.3403 21.5747 22.0349 22.0385 21.5672L23.4351 20.17C23.8123 19.7946 24.3229 19.5839 24.8551 19.5839C25.3873 19.5839 25.8978 19.7946 26.2751 20.17L31.4147 25.3086C31.7899 25.6857 32.0005 26.1961 32.0005 26.728C32.0005 27.26 31.7899 27.7703 31.4147 28.1474Z"/>
</g>
<defs>
<clipPath id="clip0_182_328">
<rect width="32" height="32" fill="white"/>
</clipPath>
</defs>
</svg>
