<svg width="35" height="40" viewBox="0 0 35 40" fill="none" xmlns="http://www.w3.org/2000/svg">
<g id="rating 1" clip-path="url(#clip0_105_84)">
<path id="Vector" d="M25.2191 13.6623L22.1671 16.6302L22.8881 20.8358C22.91 20.968 22.8947 21.1038 22.8438 21.2278C22.7928 21.3519 22.7083 21.4592 22.5997 21.5379C22.4911 21.6165 22.3627 21.6633 22.229 21.673C22.0953 21.6827 21.9615 21.6549 21.8427 21.5928L18.0697 19.6102L14.2967 21.5928C14.1278 21.6818 13.9304 21.7002 13.748 21.6439C13.5655 21.5876 13.4128 21.4611 13.3235 21.2924C13.2524 21.1514 13.2272 20.9918 13.2514 20.8358L13.9723 16.6302L10.9203 13.6623C10.8531 13.5954 10.7998 13.5158 10.7634 13.4281C10.727 13.3405 10.7083 13.2465 10.7083 13.1517C10.7083 13.0568 10.727 12.9628 10.7634 12.8752C10.7998 12.7876 10.8531 12.708 10.9203 12.641C11.0273 12.5237 11.1717 12.4473 11.3288 12.4247L15.5464 11.8119L17.4689 7.99087C17.5587 7.82238 17.7097 7.69479 17.8908 7.63442C18.0719 7.57405 18.2693 7.58551 18.4422 7.66644C18.5454 7.75275 18.6241 7.86462 18.6705 7.99087L20.557 11.8119L24.7745 12.4247C24.9631 12.4572 25.1314 12.562 25.2437 12.717C25.356 12.8719 25.4032 13.0645 25.3753 13.2538C25.3551 13.4091 25.2831 13.553 25.1711 13.6623H25.2191Z"  stroke-miterlimit="10"/>
<path id="Vector_2" d="M34.183 31.0493L31.131 34.0292L31.852 38.2227C31.8833 38.4107 31.839 38.6034 31.7287 38.7588C31.6183 38.9141 31.451 39.0195 31.2632 39.0518C31.1033 39.0823 30.9379 39.0568 30.7946 38.9797L27.0817 36.9971L23.2607 38.9917C23.1774 39.0375 23.0857 39.066 22.9912 39.0756C22.8967 39.0852 22.8012 39.0757 22.7104 39.0477C22.6196 39.0197 22.5354 38.9737 22.4627 38.9125C22.39 38.8513 22.3304 38.7761 22.2874 38.6913C22.2092 38.5528 22.1836 38.3907 22.2153 38.2347L22.9362 34.0412L19.8722 31.0493C19.805 30.9823 19.7517 30.9027 19.7153 30.8151C19.6789 30.7274 19.6602 30.6335 19.6602 30.5386C19.6602 30.4437 19.6789 30.3498 19.7153 30.2621C19.7517 30.1745 19.805 30.0949 19.8722 30.0279C19.9831 29.9181 20.1263 29.8465 20.2807 29.8237L24.4983 29.2109L26.3848 25.3898C26.4257 25.3046 26.4833 25.2285 26.5541 25.1658C26.6249 25.1032 26.7075 25.0554 26.7971 25.0251C26.8866 24.9949 26.9813 24.9829 27.0756 24.9898C27.1699 24.9967 27.2618 25.0224 27.346 25.0654C27.4928 25.1307 27.6118 25.2456 27.6825 25.3898L29.557 29.2109L33.7745 29.8237C33.8691 29.8354 33.9604 29.866 34.0429 29.9138C34.1254 29.9616 34.1975 30.0256 34.2547 30.1019C34.3119 30.1782 34.3531 30.2652 34.3759 30.3578C34.3987 30.4504 34.4026 30.5466 34.3873 30.6407C34.3645 30.7952 34.2929 30.9383 34.183 31.0493Z"  stroke-miterlimit="10"/>
<path id="Vector_3" d="M15.1859 31.0492L12.1339 34.0291L12.8548 38.2226C12.872 38.3159 12.8703 38.4116 12.8498 38.5042C12.8294 38.5968 12.7905 38.6843 12.7356 38.7616C12.6807 38.8389 12.6109 38.9044 12.5302 38.9543C12.4496 39.0041 12.3597 39.0372 12.266 39.0517C12.1101 39.0824 11.9483 39.0568 11.8094 38.9796L8.03646 36.997L4.25147 38.9917C4.16818 39.0374 4.07655 39.0659 3.98202 39.0755C3.88749 39.0851 3.79199 39.0757 3.7012 39.0476C3.6104 39.0196 3.52617 38.9736 3.4535 38.9124C3.38084 38.8512 3.32122 38.776 3.27819 38.6913C3.20635 38.5506 3.18111 38.3907 3.2061 38.2347L3.92704 34.0411L0.887043 31.0492C0.794237 30.9556 0.729381 30.8379 0.699762 30.7094C0.670144 30.581 0.676936 30.4468 0.719375 30.322C0.761815 30.1971 0.83822 30.0866 0.940007 30.0028C1.04179 29.919 1.16493 29.8653 1.29558 29.8476L5.45305 29.2108L7.33954 25.3897C7.38168 25.3041 7.44041 25.2277 7.51231 25.165C7.58421 25.1022 7.66786 25.0544 7.75839 25.0242C7.84893 24.994 7.94456 24.9821 8.03973 24.9892C8.1349 24.9962 8.22773 25.0221 8.31282 25.0653C8.45624 25.1313 8.57132 25.2463 8.63725 25.3897L10.5237 29.2108L14.7413 29.8236C14.8352 29.8368 14.9257 29.8685 15.0073 29.9168C15.089 29.9651 15.1604 30.029 15.2173 30.1049C15.2743 30.1808 15.3156 30.2672 15.3391 30.3591C15.3626 30.4511 15.3677 30.5468 15.3541 30.6407C15.3315 30.7978 15.2551 30.9422 15.1378 31.0492H15.1859Z"  stroke-miterlimit="10"/>
<path id="Vector_4" d="M7.0874 6.96948L9.26227 8.97612"  stroke-miterlimit="10" stroke-linecap="round"/>
<path id="Vector_5" d="M29.0401 6.96948L26.8652 8.97612"  stroke-miterlimit="10" stroke-linecap="round"/>
<path id="Vector_6" d="M18.0698 1.33411V4.29"  stroke-miterlimit="10" stroke-linecap="round"/>
</g>
<defs>
<clipPath id="clip0_105_84">
<rect width="34.93" height="38.9433" fill="white" transform="translate(0.0700684 0.733398)"/>
</clipPath>
</defs>
</svg>
