<svg width="55" height="55" viewBox="0 0 55 55" fill="none" xmlns="http://www.w3.org/2000/svg">
<path fill-rule="evenodd" clip-rule="evenodd" d="M17.0878 45.9362L8.47475 37.3232C7.631 36.4794 7.15625 35.3342 7.15625 34.1417V19.8677C7.15625 18.6752 7.631 17.5299 8.47475 16.6862L17.0878 8.07317C17.9315 7.22942 19.0768 6.75467 20.2693 6.75467H34.541C35.7335 6.75467 36.8788 7.22942 37.7225 8.07317L46.3355 16.6862C47.1815 17.5299 47.6562 18.6752 47.6562 19.8677V34.1394C47.6562 35.3319 47.1815 36.4772 46.3377 37.3209L36.4062 47.2547H20.2693C19.0768 47.2547 17.9315 46.7799 17.0878 45.9362V45.9362Z" stroke="#F66666" stroke-width="2" stroke-linecap="round" stroke-linejoin="round"/>
<path d="M20.6562 33.7547L34.1562 20.2547" stroke="#F66666" stroke-width="2" stroke-linecap="round" stroke-linejoin="round"/>
<path d="M34.1562 33.7547L20.6562 20.2547" stroke="#F66666" stroke-width="2" stroke-linecap="round" stroke-linejoin="round"/>
</svg>
