<svg width="35" height="43" viewBox="0 0 35 43" fill="none" xmlns="http://www.w3.org/2000/svg">
<g id="human 1" clip-path="url(#clip0_105_97)">
<path id="Vector" d="M27.3395 10.3983C27.2438 13.2428 26.309 15.9956 24.6526 18.3101C22.7547 21.0313 20.3423 22.5176 17.8841 22.5176C15.4259 22.5176 13.0135 21.0313 11.1155 18.3101C9.45921 15.9956 8.52439 13.2428 8.42871 10.3983C8.42871 7.89053 9.4249 5.48552 11.1981 3.71229C12.9714 1.93906 15.3764 0.942871 17.8841 0.942871C20.3918 0.942871 22.7968 1.93906 24.5701 3.71229C26.3433 5.48552 27.3395 7.89053 27.3395 10.3983Z" stroke-miterlimit="10"/>
<path id="Vector_2" d="M11.573 18.9276C11.4569 18.8655 11.3273 18.8331 11.1957 18.8331C11.0641 18.8331 10.9345 18.8655 10.8184 18.9276C8.0514 20.2493 5.70754 22.316 4.04984 24.8958C2.33629 27.5336 1.42298 30.6111 1.42017 33.7566C1.42141 33.9715 1.50774 34.177 1.66027 34.3283C6.10232 38.3594 11.8857 40.5929 17.8842 40.5938C19.0743 40.5928 20.2627 40.5049 21.44 40.3308" stroke-miterlimit="10"/>
<path id="Vector_3" d="M33.9823 30.2695C33.5729 28.3502 32.8174 26.5215 31.7528 24.8729C30.0879 22.2951 27.741 20.2292 24.9729 18.9047C24.8568 18.8426 24.7272 18.8102 24.5956 18.8102C24.4639 18.8102 24.3343 18.8426 24.2183 18.9047" stroke-miterlimit="10"/>
<path id="Vector_4" d="M25.8531 41.5657C30.5889 41.5657 34.4281 37.7265 34.4281 32.9907C34.4281 28.2548 30.5889 24.4156 25.8531 24.4156C21.1172 24.4156 17.2781 28.2548 17.2781 32.9907C17.2781 37.7265 21.1172 41.5657 25.8531 41.5657Z" stroke-miterlimit="10"/>
<path id="Vector_5" d="M21.4399 32.659L25.2129 36.432L31.0783 30.6238" stroke-linecap="round" stroke-linejoin="round"/>
</g>
<defs>
<clipPath id="clip0_105_97">
<rect width="34.14" height="41.7546" fill="white" transform="translate(0.859863 0.38269)"/>
</clipPath>
</defs>
</svg>
