<svg width="174" height="38" viewBox="0 0 174 38" fill="none" xmlns="http://www.w3.org/2000/svg">
<g clip-path="url(#clip0_182_288)">
<path d="M9.03369 27.9512C6.66071 28.0295 4.35295 27.1502 2.60957 25.5036C1.7412 24.6691 1.0587 23.6535 0.608397 22.5257C0.158093 21.3979 -0.0494778 20.1844 -0.00022851 18.9674C-0.0471813 17.7568 0.161613 16.5501 0.611953 15.4293C1.06229 14.3085 1.74361 13.3 2.60957 12.4723C4.35466 10.827 6.66004 9.9437 9.03369 10.0109C10.4365 9.94555 11.8305 10.2695 13.0676 10.9484C14.3048 11.6274 15.3388 12.6359 16.0601 13.867L13.0488 15.5352C12.6277 14.863 12.0537 14.3047 11.3758 13.908C10.6627 13.4782 9.84817 13.256 9.02031 13.2654C8.31123 13.2454 7.60604 13.3788 6.95099 13.6569C6.29594 13.935 5.70583 14.3514 5.21937 14.8789C4.71605 15.4271 4.32435 16.0721 4.06703 16.7763C3.8097 17.4805 3.69188 18.23 3.72041 18.9811C3.69188 19.7322 3.8097 20.4816 4.06703 21.1858C4.32435 21.8901 4.71605 22.535 5.21937 23.0833C5.70735 23.6125 6.29963 24.0299 6.95713 24.3081C7.61463 24.5862 8.32239 24.7187 9.03369 24.6968C9.73884 24.6963 10.4377 24.5618 11.0948 24.3003C11.6667 24.0967 12.1941 23.7808 12.6473 23.3704V21.251H8.16376V18.0239H16.1939V24.6831C15.3059 25.7284 14.2048 26.5626 12.9679 27.1271C11.731 27.6917 10.3882 27.9729 9.03369 27.9512Z" fill="white"/>
<path d="M31.6387 27.6094H19.5935V10.2844H31.6387V13.5388H23.2472V17.2035H31.4514V20.4442H23.2472V24.3686H31.6387V27.6094Z" fill="white"/>
<path d="M50.1484 27.6094H46.6686L38.6385 16.301V27.6094H35.0249V10.2844H38.6786L46.5348 21.2236V10.2844H50.1484V27.6094Z" fill="white"/>
<path d="M57.6163 27.6094H54.0027V10.2844H57.6163V27.6094Z" fill="white"/>
<path d="M74.8544 25.9822C74.0744 26.6752 73.1679 27.2036 72.187 27.5369C71.2062 27.8701 70.1704 28.0017 69.1396 27.9239C68.1077 28.0013 67.071 27.8683 66.0899 27.5327C65.1088 27.197 64.2029 26.6653 63.4248 25.9685C62.7652 25.2739 62.2526 24.448 61.9187 23.5424C61.5849 22.6367 61.437 21.6706 61.4842 20.704V10.2844H65.1513V20.5809C65.1233 21.1237 65.2012 21.6667 65.3804 22.1784C65.5596 22.6902 65.8366 23.1604 66.1952 23.5619C66.5844 23.9443 67.047 24.2402 67.5538 24.4308C68.0606 24.6214 68.6005 24.7027 69.1396 24.6695C69.6767 24.7033 70.2147 24.6223 70.7194 24.4316C71.2241 24.2408 71.6843 23.9446 72.0706 23.5619C72.4268 23.1593 72.7013 22.6886 72.8782 22.1769C73.0551 21.6652 73.1309 21.1227 73.1011 20.5809V10.2844H76.7816V20.6766C76.8345 21.6488 76.6907 22.6217 76.3591 23.5346C76.0275 24.4474 75.5153 25.2806 74.8544 25.9822V25.9822Z" fill="white"/>
<path d="M86.6587 27.9239C85.3432 27.9963 84.0272 27.7909 82.793 27.3203C81.5587 26.8498 80.4326 26.1243 79.4851 25.1891L81.4391 22.3859C82.1214 23.137 82.9505 23.7333 83.8727 24.1361C84.7949 24.5389 85.7897 24.7392 86.7925 24.7242C87.5752 24.7713 88.3524 24.5656 89.0142 24.1362C89.2467 23.9945 89.44 23.7945 89.5758 23.5553C89.7116 23.316 89.7855 23.0453 89.7905 22.7688C89.7814 22.5271 89.7097 22.2921 89.5828 22.0879C89.4558 21.8837 89.2781 21.7176 89.0678 21.6065C88.512 21.2694 87.899 21.0421 87.261 20.9365C86.4661 20.778 85.6798 20.5772 84.9055 20.3348C84.1024 20.0907 83.3155 19.7939 82.5499 19.446C81.7806 19.0917 81.1304 18.5137 80.6805 17.7841C80.2307 17.0546 80.0011 16.2058 80.0205 15.3438C80.0125 14.6219 80.1664 13.9077 80.4703 13.2559C80.7742 12.6041 81.22 12.0321 81.7737 11.5835C83.1037 10.5146 84.7681 9.97532 86.458 10.0657C88.8856 9.96601 91.2562 10.8338 93.0694 12.486L91.0619 15.2208C89.7406 13.9083 87.9661 13.1811 86.1234 13.197C85.497 13.1578 84.8744 13.3204 84.3433 13.6619C84.1429 13.8034 83.9803 13.9939 83.8705 14.216C83.7606 14.4381 83.7069 14.6848 83.7143 14.9336C83.728 15.1601 83.8028 15.3784 83.9304 15.5642C84.0579 15.75 84.2333 15.8962 84.437 15.9865C84.9995 16.3034 85.6104 16.5207 86.2438 16.6292C87.0355 16.7879 87.8175 16.9933 88.5859 17.2445C89.3846 17.4997 90.1668 17.8057 90.9281 18.1607C91.6922 18.5221 92.3376 19.1018 92.7864 19.8297C93.2352 20.5576 93.4683 21.4026 93.4576 22.2629C93.4822 23.0235 93.3385 23.78 93.0373 24.4761C92.736 25.1721 92.285 25.7898 91.7177 26.283C90.2826 27.4399 88.4842 28.0232 86.6587 27.9239V27.9239Z" fill="white"/>
<path d="M103.95 27.6094H100.377V13.5388H95.3582V10.2844H108.889V13.5388H103.95V27.6094Z" fill="white"/>
<path d="M125.07 25.9822C123.425 27.25 121.422 27.9359 119.362 27.9359C117.302 27.9359 115.298 27.25 113.654 25.9822C112.994 25.2875 112.481 24.4617 112.148 23.5561C111.814 22.6504 111.666 21.6842 111.713 20.7177V10.2844H115.367V20.5809C115.344 21.1233 115.427 21.6649 115.611 22.1742C115.795 22.6836 116.076 23.1506 116.437 23.5482C116.827 23.9306 117.289 24.2265 117.796 24.4171C118.303 24.6078 118.843 24.689 119.382 24.6558C119.921 24.6916 120.462 24.6115 120.969 24.4207C121.476 24.2299 121.938 23.9327 122.326 23.5482C122.682 23.1457 122.957 22.6749 123.134 22.1632C123.311 21.6515 123.386 21.1091 123.357 20.5673V10.2844H127.01V20.6766C127.062 21.6498 126.916 22.6233 126.582 23.5362C126.248 24.4491 125.733 25.2818 125.07 25.9822Z" fill="white"/>
<path d="M137.543 27.6093H130.851V10.2844H137.543C139.93 10.1849 142.26 11.0438 144.034 12.6773C144.867 13.4825 145.521 14.4605 145.952 15.5454C146.384 16.6304 146.583 17.7971 146.537 18.9674C146.583 20.1343 146.385 21.2978 145.956 22.3802C145.526 23.4626 144.876 24.4388 144.048 25.2437C142.265 26.8694 139.93 27.7184 137.543 27.6093ZM137.543 24.3686C138.261 24.4046 138.979 24.2843 139.648 24.0155C140.317 23.7468 140.922 23.3358 141.424 22.8097C142.373 21.768 142.886 20.3897 142.856 18.9674C142.929 17.5349 142.449 16.1305 141.518 15.0566C141.007 14.5348 140.393 14.1297 139.717 13.868C139.041 13.6064 138.318 13.4942 137.597 13.5388H134.518V24.3686H137.543Z" fill="white"/>
<path d="M153.229 27.6094H149.615V10.2844H153.229V27.6094Z" fill="white"/>
<path d="M165.127 27.9242C163.957 27.9633 162.791 27.7592 161.701 27.3244C160.61 26.8895 159.618 26.233 158.783 25.3945C157.956 24.5566 157.307 23.5534 156.876 22.4477C156.445 21.3419 156.243 20.1572 156.28 18.9677C156.243 17.7783 156.445 16.5936 156.876 15.4878C157.307 14.3821 157.956 13.3789 158.783 12.541C160.514 10.9073 162.784 10 165.14 10C167.497 10 169.767 10.9073 171.497 12.541C172.322 13.38 172.969 14.3837 173.397 15.4895C173.826 16.5952 174.026 17.7793 173.987 18.9677C174.026 20.1595 173.824 21.3467 173.394 22.455C172.963 23.5633 172.313 24.5687 171.484 25.4082C170.645 26.2433 169.649 26.8966 168.557 27.329C167.464 27.7613 166.298 27.9638 165.127 27.9242V27.9242ZM161.406 23.0426C161.891 23.5528 162.472 23.9585 163.113 24.2354C163.755 24.5124 164.444 24.6551 165.14 24.6551C165.837 24.6551 166.526 24.5124 167.167 24.2354C167.809 23.9585 168.389 23.5528 168.874 23.0426C169.846 21.9123 170.354 20.4433 170.293 18.9404C170.354 17.4376 169.846 15.9685 168.874 14.8382C168.389 14.328 167.809 13.9223 167.167 13.6454C166.526 13.3684 165.837 13.2257 165.14 13.2257C164.444 13.2257 163.755 13.3684 163.113 13.6454C162.472 13.9223 161.891 14.328 161.406 14.8382C160.442 15.9721 159.939 17.4398 160.001 18.9404C159.939 20.441 160.442 21.9088 161.406 23.0426V23.0426Z" fill="white"/>
</g>
<defs>
<clipPath id="clip0_182_288">
<rect width="174" height="38" fill="white"/>
</clipPath>
</defs>
</svg>
