<svg width="60" height="60" viewBox="0 0 60 60" fill="none" xmlns="http://www.w3.org/2000/svg">
<g clip-path="url(#clip0_117_450)">
<path d="M57.7129 52.4421L55.4795 54.6577C54.022 56.1094 52.2863 57.2517 50.3765 58.0162C48.4668 58.7807 46.4223 59.1517 44.3657 59.1068C42.2511 59.0834 40.1486 58.7831 38.112 58.2134C30.9649 56.3016 22.835 51.1914 15.8487 44.2051C8.86243 37.2188 3.69865 29.1068 1.76893 21.9418C-0.160793 14.7768 1.08995 8.7554 5.34248 4.50287L7.55809 2.28726C8.45233 1.39583 9.6635 0.895264 10.9262 0.895264C12.1888 0.895264 13.4 1.39583 14.2942 2.28726L22.6742 10.6494C23.1221 11.0885 23.4779 11.6126 23.7208 12.1909C23.9636 12.7693 24.0887 13.3902 24.0887 14.0175C24.0887 14.6447 23.9636 15.2657 23.7208 15.844C23.4779 16.4223 23.1221 16.9464 22.6742 17.3855L18.5289 21.5487C18.1291 21.9399 17.8741 22.4555 17.8059 23.0107C17.7377 23.5659 17.8604 24.1278 18.1537 24.6041C22.4134 31.6757 28.3471 37.5909 35.4318 41.8287C35.9062 42.1242 36.4669 42.2498 37.0221 42.1849C37.5772 42.1199 38.0938 41.8683 38.4872 41.4713L42.5789 37.3081C43.0203 36.8621 43.5465 36.509 44.1265 36.2697C44.7065 36.0303 45.3285 35.9095 45.9559 35.9144C46.5815 35.9036 47.2027 36.0218 47.7806 36.2616C48.3585 36.5014 48.8809 36.8576 49.3151 37.3081L57.6951 45.706C58.5889 46.5978 59.0927 47.8077 59.096 49.0703C59.0994 50.333 58.602 51.5455 57.7129 52.4421Z" stroke-width="1.83383" stroke-miterlimit="10"/>
<path d="M54.9256 29.1245C54.9256 29.1245 53.0316 7.54026 30.8577 5.05664" stroke-width="1.83383" stroke-miterlimit="10" stroke-linecap="round"/>
<path d="M48.8861 30.5179C48.8861 30.5179 48.8861 13.4185 29.4639 11.1135" stroke-width="1.83383" stroke-miterlimit="10" stroke-linecap="round"/>
<path d="M42.7934 31.8582C42.7934 31.8582 42.9542 17.8856 28.0703 17.1709" stroke-width="1.83383" stroke-miterlimit="10" stroke-linecap="round"/>
</g>
<defs>
<clipPath id="clip0_117_450">
<rect width="60" height="60" fill="white"/>
</clipPath>
</defs>
</svg>
