<svg width="35" height="36" viewBox="0 0 35 36" fill="none" xmlns="http://www.w3.org/2000/svg">
<g clip-path="url(#clip0_105_70)">
<path d="M23.2039 25.438H3.98352C3.53402 25.4412 3.08838 25.355 2.67249 25.1844C2.2566 25.0138 1.87876 24.7623 1.56091 24.4445C1.24306 24.1266 0.991547 23.7488 0.820981 23.3329C0.650416 22.917 0.5642 22.4714 0.567344 22.0219V18.582C0.567344 17.6823 0.92477 16.8194 1.56099 16.1832C2.19722 15.5469 3.06012 15.1895 3.95987 15.1895H23.2039"  stroke-miterlimit="10"/>
<path d="M6.87965 22.4947C7.98294 22.4947 8.87734 21.6003 8.87734 20.497C8.87734 19.3937 7.98294 18.4993 6.87965 18.4993C5.77636 18.4993 4.88196 19.3937 4.88196 20.497C4.88196 21.6003 5.77636 22.4947 6.87965 22.4947Z"  stroke-miterlimit="10"/>
<path d="M18.3575 19.3859H13.381C12.8718 19.3859 12.459 19.7987 12.459 20.3079V20.3198C12.459 20.829 12.8718 21.2418 13.381 21.2418H18.3575C18.8667 21.2418 19.2795 20.829 19.2795 20.3198V20.3079C19.2795 19.7987 18.8667 19.3859 18.3575 19.3859Z"  stroke-miterlimit="10"/>
<path d="M3.09705 25.4381H10.7687V30.7929C10.7687 30.9635 10.7346 31.1325 10.6682 31.2897C10.6018 31.447 10.5046 31.5893 10.3823 31.7084C10.26 31.8274 10.115 31.9207 9.956 31.9827C9.797 32.0447 9.62717 32.0742 9.45656 32.0695H4.37368C4.03509 32.0695 3.71038 31.935 3.47096 31.6956C3.23155 31.4562 3.09705 31.1315 3.09705 30.7929V25.4381Z"  stroke-miterlimit="10"/>
<path d="M23.2039 15.1896H3.10876L5.99301 8.30997C6.22995 7.74815 6.62572 7.26771 7.13175 6.92755C7.63779 6.58739 8.23209 6.40232 8.84179 6.39502H20.4024"  stroke-miterlimit="10"/>
<path d="M31.3011 12.6363V30.6155C31.3011 31.6908 30.8739 32.7221 30.1135 33.4825C29.3532 34.2428 28.3219 34.67 27.2466 34.67C26.1713 34.67 25.14 34.2428 24.3796 33.4825C23.6193 32.7221 23.1921 31.6908 23.1921 30.6155V12.6363C22.2799 11.9964 21.5468 11.1335 21.0626 10.1299C20.5784 9.12637 20.3592 8.01552 20.4261 6.90326C20.4268 5.56109 20.8214 4.24865 21.5611 3.12867C22.3007 2.0087 23.3528 1.13046 24.5869 0.602844V7.69524L27.2584 8.87731L29.8708 7.69524V0.602844C31.1174 1.12144 32.1825 1.99779 32.9314 3.12123C33.6804 4.24468 34.0797 5.56486 34.0789 6.91508C34.1435 8.02663 33.9221 9.13618 33.4358 10.1378C32.9495 11.1394 32.2145 11.9996 31.3011 12.6363Z"  stroke-linejoin="round"/>
<path d="M27.2466 32.0457C28.0365 32.0457 28.6769 31.4054 28.6769 30.6154C28.6769 29.8255 28.0365 29.1851 27.2466 29.1851C26.4567 29.1851 25.8163 29.8255 25.8163 30.6154C25.8163 31.4054 26.4567 32.0457 27.2466 32.0457Z"  stroke-miterlimit="10"/>
</g>
<defs>
<clipPath id="clip0_105_70">
<rect width="34.67" height="35.2492" fill="white"/>
</clipPath>
</defs>
</svg>
