<svg xmlns="http://www.w3.org/2000/svg" xmlns:xlink="http://www.w3.org/1999/xlink"><defs>
<clipPath id="clip0_199_457">
<rect width="51.3342" height="60.8692" fill="white"/>
</clipPath>

<clipPath id="clip0_182_288">
<rect width="174" height="38" fill="white"/>
</clipPath>

<clipPath id="clip0_182_328">
<rect width="32" height="32" fill="white"/>
</clipPath>
</defs><symbol id="logo" viewBox="0 0 169 61">
<path d="M73.8859 25C73.5926 24.5067 73.2526 23.9533 72.8659 23.34C72.4926 22.7267 72.0859 22.0933 71.6459 21.44C71.2059 20.7733 70.7459 20.1 70.2659 19.42C69.7992 18.74 69.3326 18.0867 68.8659 17.46C68.3992 16.82 67.9459 16.22 67.5059 15.66C67.0659 15.1 66.6592 14.6067 66.2859 14.18V25H64.3859V11.14H65.9259C66.5526 11.8067 67.2192 12.5867 67.9259 13.48C68.6459 14.36 69.3526 15.2733 70.0459 16.22C70.7526 17.1533 71.4126 18.0733 72.0259 18.98C72.6526 19.8867 73.1792 20.6933 73.6059 21.4V11.14H75.5059V25H73.8859ZM79.7367 25V11.14H88.1967V12.8H81.6767V16.92H87.4767V18.54H81.6767V23.34H88.6967V25H79.7367ZM91.9625 25V11.14H100.422V12.8H93.9025V16.92H99.7025V18.54H93.9025V23.34H100.922V25H91.9625ZM115.568 18.06C115.568 19.26 115.382 20.3067 115.008 21.2C114.635 22.08 114.108 22.8133 113.428 23.4C112.748 23.9733 111.935 24.4067 110.988 24.7C110.042 24.98 109.002 25.12 107.868 25.12C107.308 25.12 106.688 25.0933 106.008 25.04C105.342 25 104.735 24.9133 104.188 24.78V11.34C104.735 11.2067 105.342 11.12 106.008 11.08C106.688 11.0267 107.308 11 107.868 11C109.002 11 110.042 11.1467 110.988 11.44C111.935 11.72 112.748 12.1533 113.428 12.74C114.108 13.3133 114.635 14.0467 115.008 14.94C115.382 15.82 115.568 16.86 115.568 18.06ZM108.028 23.42C109.868 23.42 111.242 22.9533 112.148 22.02C113.055 21.0733 113.508 19.7533 113.508 18.06C113.508 16.3667 113.055 15.0533 112.148 14.12C111.242 13.1733 109.868 12.7 108.028 12.7C107.482 12.7 107.055 12.7067 106.748 12.72C106.455 12.7333 106.248 12.7467 106.128 12.76V23.36C106.248 23.3733 106.455 23.3867 106.748 23.4C107.055 23.4133 107.482 23.42 108.028 23.42ZM124.675 25V11.14H133.035V12.8H126.615V16.98H132.315V18.62H126.615V25H124.675ZM135.403 18.06C135.403 16.8733 135.577 15.8267 135.923 14.92C136.283 14.0133 136.763 13.26 137.363 12.66C137.977 12.0467 138.683 11.5867 139.483 11.28C140.297 10.9733 141.157 10.82 142.063 10.82C142.957 10.82 143.797 10.9733 144.583 11.28C145.383 11.5867 146.083 12.0467 146.683 12.66C147.283 13.26 147.757 14.0133 148.103 14.92C148.463 15.8267 148.643 16.8733 148.643 18.06C148.643 19.2467 148.463 20.2933 148.103 21.2C147.757 22.1067 147.283 22.8667 146.683 23.48C146.083 24.08 145.383 24.5333 144.583 24.84C143.797 25.1467 142.957 25.3 142.063 25.3C141.157 25.3 140.297 25.1467 139.483 24.84C138.683 24.5333 137.977 24.08 137.363 23.48C136.763 22.8667 136.283 22.1067 135.923 21.2C135.577 20.2933 135.403 19.2467 135.403 18.06ZM137.443 18.06C137.443 18.9 137.55 19.6667 137.763 20.36C137.977 21.04 138.277 21.62 138.663 22.1C139.063 22.58 139.543 22.9533 140.103 23.22C140.677 23.4733 141.317 23.6 142.023 23.6C142.73 23.6 143.363 23.4733 143.923 23.22C144.483 22.9533 144.957 22.58 145.343 22.1C145.743 21.62 146.05 21.04 146.263 20.36C146.477 19.6667 146.583 18.9 146.583 18.06C146.583 17.22 146.477 16.46 146.263 15.78C146.05 15.0867 145.743 14.5 145.343 14.02C144.957 13.54 144.483 13.1733 143.923 12.92C143.363 12.6533 142.73 12.52 142.023 12.52C141.317 12.52 140.677 12.6533 140.103 12.92C139.543 13.1733 139.063 13.54 138.663 14.02C138.277 14.5 137.977 15.0867 137.763 15.78C137.55 16.46 137.443 17.22 137.443 18.06ZM159.11 19.2C159.323 19.4667 159.59 19.82 159.91 20.26C160.243 20.6867 160.583 21.1667 160.93 21.7C161.276 22.22 161.616 22.7667 161.95 23.34C162.296 23.9133 162.59 24.4667 162.83 25H160.71C160.443 24.4933 160.15 23.98 159.83 23.46C159.523 22.94 159.21 22.4467 158.89 21.98C158.57 21.5 158.25 21.0533 157.93 20.64C157.623 20.2267 157.343 19.8667 157.09 19.56C156.916 19.5733 156.736 19.58 156.55 19.58C156.376 19.58 156.196 19.58 156.01 19.58H154.27V25H152.33V11.34C152.876 11.2067 153.483 11.12 154.15 11.08C154.83 11.0267 155.45 11 156.01 11C157.956 11 159.436 11.3667 160.45 12.1C161.476 12.8333 161.99 13.9267 161.99 15.38C161.99 16.3 161.743 17.0867 161.25 17.74C160.77 18.3933 160.056 18.88 159.11 19.2ZM156.17 12.7C155.343 12.7 154.71 12.72 154.27 12.76V17.98H155.65C156.316 17.98 156.916 17.9467 157.45 17.88C157.983 17.8133 158.43 17.6867 158.79 17.5C159.163 17.3133 159.45 17.0533 159.65 16.72C159.85 16.3733 159.95 15.92 159.95 15.36C159.95 14.84 159.85 14.4067 159.65 14.06C159.45 13.7133 159.176 13.44 158.83 13.24C158.496 13.04 158.096 12.9 157.63 12.82C157.176 12.74 156.69 12.7 156.17 12.7Z" fill="white"/>
<path d="M67.6859 47.12C68.5926 47.12 69.2526 46.9667 69.6659 46.66C70.0792 46.3533 70.2859 45.92 70.2859 45.36C70.2859 45.0267 70.2126 44.74 70.0659 44.5C69.9326 44.26 69.7326 44.0467 69.4659 43.86C69.2126 43.66 68.8992 43.48 68.5259 43.32C68.1526 43.1467 67.7259 42.98 67.2459 42.82C66.7659 42.6467 66.2992 42.46 65.8459 42.26C65.4059 42.0467 65.0126 41.7867 64.6659 41.48C64.3326 41.1733 64.0592 40.8067 63.8459 40.38C63.6459 39.9533 63.5459 39.44 63.5459 38.84C63.5459 37.5867 63.9792 36.6067 64.8459 35.9C65.7126 35.18 66.8926 34.82 68.3859 34.82C69.2526 34.82 70.0192 34.92 70.6859 35.12C71.3659 35.3067 71.8992 35.5133 72.2859 35.74L71.5059 37.78C71.0526 37.5267 70.5526 37.3333 70.0059 37.2C69.4726 37.0667 68.9192 37 68.3459 37C67.6659 37 67.1326 37.14 66.7459 37.42C66.3726 37.7 66.1859 38.0933 66.1859 38.6C66.1859 38.9067 66.2459 39.1733 66.3659 39.4C66.4992 39.6133 66.6792 39.8067 66.9059 39.98C67.1459 40.1533 67.4192 40.3133 67.7259 40.46C68.0459 40.6067 68.3926 40.7467 68.7659 40.88C69.4192 41.12 69.9992 41.3667 70.5059 41.62C71.0259 41.86 71.4592 42.1533 71.8059 42.5C72.1659 42.8333 72.4392 43.2333 72.6259 43.7C72.8126 44.1533 72.9059 44.7067 72.9059 45.36C72.9059 46.6133 72.4592 47.5867 71.5659 48.28C70.6859 48.96 69.3926 49.3 67.6859 49.3C67.1126 49.3 66.5859 49.26 66.1059 49.18C65.6392 49.1133 65.2192 49.0267 64.8459 48.92C64.4859 48.8133 64.1726 48.7067 63.9059 48.6C63.6392 48.48 63.4259 48.3733 63.2659 48.28L64.0059 46.22C64.3659 46.42 64.8526 46.62 65.4659 46.82C66.0792 47.02 66.8192 47.12 67.6859 47.12ZM75.9267 49V35.14H84.8267V37.28H78.4467V40.7H84.1267V42.8H78.4467V46.86H85.3067V49H75.9267ZM92.2654 35C94.2654 35 95.7921 35.3667 96.8454 36.1C97.9121 36.8333 98.4454 37.9533 98.4454 39.46C98.4454 41.34 97.5188 42.6133 95.6654 43.28C95.9188 43.5867 96.2054 43.96 96.5254 44.4C96.8454 44.84 97.1721 45.32 97.5054 45.84C97.8388 46.3467 98.1588 46.8733 98.4654 47.42C98.7721 47.9533 99.0454 48.48 99.2854 49H96.4654C96.2121 48.52 95.9388 48.04 95.6454 47.56C95.3521 47.0667 95.0521 46.5933 94.7454 46.14C94.4521 45.6733 94.1588 45.24 93.8654 44.84C93.5721 44.4267 93.2988 44.06 93.0454 43.74C92.8588 43.7533 92.6988 43.76 92.5654 43.76C92.4321 43.76 92.3054 43.76 92.1854 43.76H90.9654V49H88.4454V35.34C89.0588 35.2067 89.7121 35.12 90.4054 35.08C91.0988 35.0267 91.7188 35 92.2654 35ZM92.4454 37.18C91.9121 37.18 91.4188 37.2 90.9654 37.24V41.72H92.0654C92.6788 41.72 93.2188 41.6867 93.6854 41.62C94.1521 41.5533 94.5388 41.4333 94.8454 41.26C95.1654 41.0867 95.4054 40.8533 95.5654 40.56C95.7254 40.2667 95.8054 39.8933 95.8054 39.44C95.8054 39.0133 95.7254 38.6533 95.5654 38.36C95.4054 38.0667 95.1721 37.8333 94.8654 37.66C94.5721 37.4867 94.2188 37.3667 93.8054 37.3C93.3921 37.22 92.9388 37.18 92.4454 37.18ZM105.823 49C104.823 46.84 103.856 44.58 102.923 42.22C102.003 39.86 101.143 37.5 100.343 35.14H103.123C103.443 36.0733 103.769 37.0267 104.103 38C104.436 38.9733 104.769 39.9333 105.103 40.88C105.436 41.8133 105.769 42.72 106.103 43.6C106.436 44.48 106.763 45.2867 107.083 46.02C107.389 45.2867 107.709 44.4867 108.043 43.62C108.376 42.74 108.709 41.8267 109.043 40.88C109.389 39.9333 109.729 38.9733 110.063 38C110.396 37.0267 110.716 36.0733 111.023 35.14H113.723C112.909 37.5 112.043 39.86 111.123 42.22C110.203 44.58 109.243 46.84 108.243 49H105.823ZM116.315 35.14H118.835V49H116.315V35.14ZM129.115 49.3C128.075 49.3 127.141 49.14 126.315 48.82C125.488 48.5 124.788 48.0333 124.215 47.42C123.641 46.7933 123.201 46.0333 122.895 45.14C122.588 44.2467 122.435 43.22 122.435 42.06C122.435 40.9 122.608 39.8733 122.955 38.98C123.315 38.0867 123.801 37.3333 124.415 36.72C125.028 36.0933 125.748 35.62 126.575 35.3C127.401 34.98 128.288 34.82 129.235 34.82C129.808 34.82 130.328 34.8667 130.795 34.96C131.261 35.04 131.668 35.1333 132.015 35.24C132.361 35.3467 132.648 35.46 132.875 35.58C133.101 35.7 133.261 35.7867 133.355 35.84L132.615 37.9C132.295 37.7 131.835 37.5133 131.235 37.34C130.648 37.1533 130.008 37.06 129.315 37.06C128.715 37.06 128.155 37.1667 127.635 37.38C127.115 37.58 126.661 37.8867 126.275 38.3C125.901 38.7133 125.608 39.2333 125.395 39.86C125.181 40.4867 125.075 41.2133 125.075 42.04C125.075 42.7733 125.155 43.4467 125.315 44.06C125.488 44.6733 125.748 45.2067 126.095 45.66C126.441 46.1 126.881 46.4467 127.415 46.7C127.948 46.94 128.588 47.06 129.335 47.06C130.228 47.06 130.955 46.9733 131.515 46.8C132.075 46.6133 132.508 46.44 132.815 46.28L133.495 48.34C133.335 48.4467 133.115 48.5533 132.835 48.66C132.568 48.7667 132.248 48.8733 131.875 48.98C131.501 49.0733 131.081 49.1467 130.615 49.2C130.148 49.2667 129.648 49.3 129.115 49.3ZM136.509 49V35.14H145.409V37.28H139.029V40.7H144.709V42.8H139.029V46.86H145.889V49H136.509Z" fill="#FEC200"/>
<g clip-path="url(#clip0_199_457)">
<path fill-rule="evenodd" clip-rule="evenodd" d="M18.9002 56.9955L12.4003 53.0558L6.96666 34.5937V49.7649L0.00012207 45.5449V14.746L6.96666 10.6815L12.0667 30.4003L12.0933 7.66897L18.9002 3.71704L18.7181 30.1056L18.9002 56.9955Z" fill="#1E47B0"/>
<path fill-rule="evenodd" clip-rule="evenodd" d="M22.537 1.59473V59.1976L21.8555 58.7862L21.7634 30.2283L21.8739 1.98153L22.537 1.59473Z" fill="#1E47B0"/>
<path fill-rule="evenodd" clip-rule="evenodd" d="M22.537 1.59473V59.1976L21.8555 58.7862L21.7634 30.2283L21.8739 1.98153L22.537 1.59473Z" fill="#1E47B0"/>
<path fill-rule="evenodd" clip-rule="evenodd" d="M23.7323 0.894531V59.9218L23.0549 59.5125L22.9567 29.5261L23.0692 1.28133L23.7323 0.894531Z" fill="#1E47B0"/>
<path fill-rule="evenodd" clip-rule="evenodd" d="M21.1372 2.41309V58.35L20.4741 57.9489V30.0909V2.79989L21.1372 2.41309Z" fill="#1E47B0"/>
<path fill-rule="evenodd" clip-rule="evenodd" d="M37.0781 30.2588L27.5493 25.1608V59.5535L25.294 60.8694L24.4651 60.366L24.3873 0.515981L25.2714 0.000244141L37.0781 6.74166V14.3754L27.5493 9.47179V17.6806L37.1846 22.8359L37.0781 30.2588Z" fill="#FEC200"/>
<path fill-rule="evenodd" clip-rule="evenodd" d="M51.3344 45.6758L29.387 58.4812L29.4525 46.7482L29.387 34.7389L37.078 38.8546V45.4589L45.4874 41.0096V34.7594L38.9199 31.2454V7.79785L51.3344 14.9138V28.2493L45.4874 25.2408V18.704L43.8869 17.8793V21.9908V26.4217L51.3344 30.4084V45.6758Z" fill="#FEC200"/>
</g>

</symbol><symbol id="logo_f" viewBox="0 0 174 38">
<g clip-path="url(#clip0_182_288)">
<path d="M9.03369 27.9512C6.66071 28.0295 4.35295 27.1502 2.60957 25.5036C1.7412 24.6691 1.0587 23.6535 0.608397 22.5257C0.158093 21.3979 -0.0494778 20.1844 -0.00022851 18.9674C-0.0471813 17.7568 0.161613 16.5501 0.611953 15.4293C1.06229 14.3085 1.74361 13.3 2.60957 12.4723C4.35466 10.827 6.66004 9.9437 9.03369 10.0109C10.4365 9.94555 11.8305 10.2695 13.0676 10.9484C14.3048 11.6274 15.3388 12.6359 16.0601 13.867L13.0488 15.5352C12.6277 14.863 12.0537 14.3047 11.3758 13.908C10.6627 13.4782 9.84817 13.256 9.02031 13.2654C8.31123 13.2454 7.60604 13.3788 6.95099 13.6569C6.29594 13.935 5.70583 14.3514 5.21937 14.8789C4.71605 15.4271 4.32435 16.0721 4.06703 16.7763C3.8097 17.4805 3.69188 18.23 3.72041 18.9811C3.69188 19.7322 3.8097 20.4816 4.06703 21.1858C4.32435 21.8901 4.71605 22.535 5.21937 23.0833C5.70735 23.6125 6.29963 24.0299 6.95713 24.3081C7.61463 24.5862 8.32239 24.7187 9.03369 24.6968C9.73884 24.6963 10.4377 24.5618 11.0948 24.3003C11.6667 24.0967 12.1941 23.7808 12.6473 23.3704V21.251H8.16376V18.0239H16.1939V24.6831C15.3059 25.7284 14.2048 26.5626 12.9679 27.1271C11.731 27.6917 10.3882 27.9729 9.03369 27.9512Z" fill="white"/>
<path d="M31.6387 27.6094H19.5935V10.2844H31.6387V13.5388H23.2472V17.2035H31.4514V20.4442H23.2472V24.3686H31.6387V27.6094Z" fill="white"/>
<path d="M50.1484 27.6094H46.6686L38.6385 16.301V27.6094H35.0249V10.2844H38.6786L46.5348 21.2236V10.2844H50.1484V27.6094Z" fill="white"/>
<path d="M57.6163 27.6094H54.0027V10.2844H57.6163V27.6094Z" fill="white"/>
<path d="M74.8544 25.9822C74.0744 26.6752 73.1679 27.2036 72.187 27.5369C71.2062 27.8701 70.1704 28.0017 69.1396 27.9239C68.1077 28.0013 67.071 27.8683 66.0899 27.5327C65.1088 27.197 64.2029 26.6653 63.4248 25.9685C62.7652 25.2739 62.2526 24.448 61.9187 23.5424C61.5849 22.6367 61.437 21.6706 61.4842 20.704V10.2844H65.1513V20.5809C65.1233 21.1237 65.2012 21.6667 65.3804 22.1784C65.5596 22.6902 65.8366 23.1604 66.1952 23.5619C66.5844 23.9443 67.047 24.2402 67.5538 24.4308C68.0606 24.6214 68.6005 24.7027 69.1396 24.6695C69.6767 24.7033 70.2147 24.6223 70.7194 24.4316C71.2241 24.2408 71.6843 23.9446 72.0706 23.5619C72.4268 23.1593 72.7013 22.6886 72.8782 22.1769C73.0551 21.6652 73.1309 21.1227 73.1011 20.5809V10.2844H76.7816V20.6766C76.8345 21.6488 76.6907 22.6217 76.3591 23.5346C76.0275 24.4474 75.5153 25.2806 74.8544 25.9822V25.9822Z" fill="white"/>
<path d="M86.6587 27.9239C85.3432 27.9963 84.0272 27.7909 82.793 27.3203C81.5587 26.8498 80.4326 26.1243 79.4851 25.1891L81.4391 22.3859C82.1214 23.137 82.9505 23.7333 83.8727 24.1361C84.7949 24.5389 85.7897 24.7392 86.7925 24.7242C87.5752 24.7713 88.3524 24.5656 89.0142 24.1362C89.2467 23.9945 89.44 23.7945 89.5758 23.5553C89.7116 23.316 89.7855 23.0453 89.7905 22.7688C89.7814 22.5271 89.7097 22.2921 89.5828 22.0879C89.4558 21.8837 89.2781 21.7176 89.0678 21.6065C88.512 21.2694 87.899 21.0421 87.261 20.9365C86.4661 20.778 85.6798 20.5772 84.9055 20.3348C84.1024 20.0907 83.3155 19.7939 82.5499 19.446C81.7806 19.0917 81.1304 18.5137 80.6805 17.7841C80.2307 17.0546 80.0011 16.2058 80.0205 15.3438C80.0125 14.6219 80.1664 13.9077 80.4703 13.2559C80.7742 12.6041 81.22 12.0321 81.7737 11.5835C83.1037 10.5146 84.7681 9.97532 86.458 10.0657C88.8856 9.96601 91.2562 10.8338 93.0694 12.486L91.0619 15.2208C89.7406 13.9083 87.9661 13.1811 86.1234 13.197C85.497 13.1578 84.8744 13.3204 84.3433 13.6619C84.1429 13.8034 83.9803 13.9939 83.8705 14.216C83.7606 14.4381 83.7069 14.6848 83.7143 14.9336C83.728 15.1601 83.8028 15.3784 83.9304 15.5642C84.0579 15.75 84.2333 15.8962 84.437 15.9865C84.9995 16.3034 85.6104 16.5207 86.2438 16.6292C87.0355 16.7879 87.8175 16.9933 88.5859 17.2445C89.3846 17.4997 90.1668 17.8057 90.9281 18.1607C91.6922 18.5221 92.3376 19.1018 92.7864 19.8297C93.2352 20.5576 93.4683 21.4026 93.4576 22.2629C93.4822 23.0235 93.3385 23.78 93.0373 24.4761C92.736 25.1721 92.285 25.7898 91.7177 26.283C90.2826 27.4399 88.4842 28.0232 86.6587 27.9239V27.9239Z" fill="white"/>
<path d="M103.95 27.6094H100.377V13.5388H95.3582V10.2844H108.889V13.5388H103.95V27.6094Z" fill="white"/>
<path d="M125.07 25.9822C123.425 27.25 121.422 27.9359 119.362 27.9359C117.302 27.9359 115.298 27.25 113.654 25.9822C112.994 25.2875 112.481 24.4617 112.148 23.5561C111.814 22.6504 111.666 21.6842 111.713 20.7177V10.2844H115.367V20.5809C115.344 21.1233 115.427 21.6649 115.611 22.1742C115.795 22.6836 116.076 23.1506 116.437 23.5482C116.827 23.9306 117.289 24.2265 117.796 24.4171C118.303 24.6078 118.843 24.689 119.382 24.6558C119.921 24.6916 120.462 24.6115 120.969 24.4207C121.476 24.2299 121.938 23.9327 122.326 23.5482C122.682 23.1457 122.957 22.6749 123.134 22.1632C123.311 21.6515 123.386 21.1091 123.357 20.5673V10.2844H127.01V20.6766C127.062 21.6498 126.916 22.6233 126.582 23.5362C126.248 24.4491 125.733 25.2818 125.07 25.9822Z" fill="white"/>
<path d="M137.543 27.6093H130.851V10.2844H137.543C139.93 10.1849 142.26 11.0438 144.034 12.6773C144.867 13.4825 145.521 14.4605 145.952 15.5454C146.384 16.6304 146.583 17.7971 146.537 18.9674C146.583 20.1343 146.385 21.2978 145.956 22.3802C145.526 23.4626 144.876 24.4388 144.048 25.2437C142.265 26.8694 139.93 27.7184 137.543 27.6093ZM137.543 24.3686C138.261 24.4046 138.979 24.2843 139.648 24.0155C140.317 23.7468 140.922 23.3358 141.424 22.8097C142.373 21.768 142.886 20.3897 142.856 18.9674C142.929 17.5349 142.449 16.1305 141.518 15.0566C141.007 14.5348 140.393 14.1297 139.717 13.868C139.041 13.6064 138.318 13.4942 137.597 13.5388H134.518V24.3686H137.543Z" fill="white"/>
<path d="M153.229 27.6094H149.615V10.2844H153.229V27.6094Z" fill="white"/>
<path d="M165.127 27.9242C163.957 27.9633 162.791 27.7592 161.701 27.3244C160.61 26.8895 159.618 26.233 158.783 25.3945C157.956 24.5566 157.307 23.5534 156.876 22.4477C156.445 21.3419 156.243 20.1572 156.28 18.9677C156.243 17.7783 156.445 16.5936 156.876 15.4878C157.307 14.3821 157.956 13.3789 158.783 12.541C160.514 10.9073 162.784 10 165.14 10C167.497 10 169.767 10.9073 171.497 12.541C172.322 13.38 172.969 14.3837 173.397 15.4895C173.826 16.5952 174.026 17.7793 173.987 18.9677C174.026 20.1595 173.824 21.3467 173.394 22.455C172.963 23.5633 172.313 24.5687 171.484 25.4082C170.645 26.2433 169.649 26.8966 168.557 27.329C167.464 27.7613 166.298 27.9638 165.127 27.9242V27.9242ZM161.406 23.0426C161.891 23.5528 162.472 23.9585 163.113 24.2354C163.755 24.5124 164.444 24.6551 165.14 24.6551C165.837 24.6551 166.526 24.5124 167.167 24.2354C167.809 23.9585 168.389 23.5528 168.874 23.0426C169.846 21.9123 170.354 20.4433 170.293 18.9404C170.354 17.4376 169.846 15.9685 168.874 14.8382C168.389 14.328 167.809 13.9223 167.167 13.6454C166.526 13.3684 165.837 13.2257 165.14 13.2257C164.444 13.2257 163.755 13.3684 163.113 13.6454C162.472 13.9223 161.891 14.328 161.406 14.8382C160.442 15.9721 159.939 17.4398 160.001 18.9404C159.939 20.441 160.442 21.9088 161.406 23.0426V23.0426Z" fill="white"/>
</g>

</symbol><symbol id="phone" viewBox="0 0 32 32">
<g clip-path="url(#clip0_182_328)">
<path fill-rule="evenodd" clip-rule="evenodd" d="M31.4147 28.1474C31.2022 28.3592 30.9459 28.6301 30.6742 28.9166C29.9962 29.6362 29.1492 30.5307 28.6184 30.8934C25.8252 32.8021 22.0885 31.8888 19.4453 30.7875C15.9585 29.3347 12.1623 26.6568 8.75374 23.2478C5.34199 19.8386 2.66436 16.0412 1.21155 12.5564C0.111551 9.91261 -0.803636 6.17512 1.1053 3.38137C1.4678 2.85012 2.36436 2.00443 3.08299 1.32512C3.37049 1.05424 3.63924 0.798303 3.85174 0.586491C4.229 0.211101 4.73956 0.000366211 5.27177 0.000366211C5.80398 0.000366211 6.31454 0.211101 6.6918 0.586491L11.8311 5.72424C12.2062 6.10149 12.4168 6.61191 12.4168 7.14396C12.4168 7.67601 12.2062 8.18643 11.8311 8.56368L10.4311 9.96086C9.9635 10.425 9.65832 11.0277 9.56091 11.6793C9.46351 12.3308 9.57911 12.9964 9.89049 13.577C11.8161 17.2114 14.7889 20.1837 18.4236 22.1087C19.0041 22.42 19.6695 22.5354 20.3209 22.4378C20.9723 22.3403 21.5747 22.0349 22.0385 21.5672L23.4351 20.17C23.8123 19.7946 24.3229 19.5839 24.8551 19.5839C25.3873 19.5839 25.8978 19.7946 26.2751 20.17L31.4147 25.3086C31.7899 25.6857 32.0005 26.1961 32.0005 26.728C32.0005 27.26 31.7899 27.7703 31.4147 28.1474Z"/>
</g>

</symbol></svg>