<svg xmlns="http://www.w3.org/2000/svg" xmlns:xlink="http://www.w3.org/1999/xlink"><defs>
<clipPath id="clip0_166_26">
<rect width="51.3342" height="60.8692" fill="white"/>
</clipPath>

<clipPath id="clip0_105_97">
<rect width="34.14" height="41.7546" fill="white" transform="translate(0.859863 0.38269)"/>
</clipPath>

<clipPath id="clip0_199_457">
<rect width="51.3342" height="60.8692" fill="white"/>
</clipPath>

<clipPath id="clip0_182_288">
<rect width="174" height="38" fill="white"/>
</clipPath>

<clipPath id="clip0_113_233">
<rect width="77.8984" height="77.8984" fill="white"/>
</clipPath>

<clipPath id="clip0_182_328">
<rect width="32" height="32" fill="white"/>
</clipPath>

<clipPath id="clip0_117_450">
<rect width="60" height="60" fill="white"/>
</clipPath>

<clipPath id="clip0_105_84">
<rect width="34.93" height="38.9433" fill="white" transform="translate(0.0700684 0.733398)"/>
</clipPath>

<clipPath id="clip0_105_70">
<rect width="34.67" height="35.2492" fill="white"/>
</clipPath>

<clipPath id="clip0_117_433">
<rect width="60" height="60" fill="white"/>
</clipPath>

<clipPath id="clip0_113_262">
<rect width="69.1429" height="70.4" fill="white"/>
</clipPath>
</defs><symbol id="burger" viewBox="0 0 22 14">
<g id="Group 199">
<path id="Rectangle 29" d="M2 0H22L20 2H0L2 0Z"/>
<path id="Rectangle 30" d="M2 6H22L20 8H0L2 6Z"/>
<path id="Rectangle 31" d="M2 12H22L20 14H0L2 12Z"/>
</g>
</symbol><symbol id="close" viewBox="0 0 20 20">
<line x1="19.2071" y1="1.20711" x2="1.20726" y2="19.207" stroke-width="2"/>
<line x1="1.20711" y1="0.84221" x2="19.207" y2="18.8421" stroke-width="2"/>
</symbol><symbol id="close2" viewBox="0 0 20 20">
<line x1="19.2071" y1="1.20711" x2="1.20726" y2="19.207" stroke="#fff" stroke-width="2"/>
<line x1="1.20711" y1="0.84221" x2="19.207" y2="18.8421" stroke="#fff" stroke-width="2"/>
</symbol><symbol id="fav" viewBox="0 0 52 61">
<g clip-path="url(#clip0_166_26)">
<path fill-rule="evenodd" clip-rule="evenodd" d="M18.9002 56.9955L12.4003 53.0558L6.96666 34.5937V49.7649L0.00012207 45.5449V14.746L6.96666 10.6815L12.0667 30.4003L12.0933 7.66897L18.9002 3.71704L18.7181 30.1056L18.9002 56.9955Z" fill="#1E47B0"/>
<path fill-rule="evenodd" clip-rule="evenodd" d="M22.537 1.59473V59.1976L21.8555 58.7862L21.7634 30.2283L21.8739 1.98153L22.537 1.59473Z" fill="#1E47B0"/>
<path fill-rule="evenodd" clip-rule="evenodd" d="M22.537 1.59473V59.1976L21.8555 58.7862L21.7634 30.2283L21.8739 1.98153L22.537 1.59473Z" fill="#1E47B0"/>
<path fill-rule="evenodd" clip-rule="evenodd" d="M23.7323 0.894531V59.9218L23.0549 59.5125L22.9567 29.5261L23.0692 1.28133L23.7323 0.894531Z" fill="#1E47B0"/>
<path fill-rule="evenodd" clip-rule="evenodd" d="M21.1372 2.41309V58.35L20.4741 57.9489V30.0909V2.79989L21.1372 2.41309Z" fill="#1E47B0"/>
<path fill-rule="evenodd" clip-rule="evenodd" d="M37.0781 30.2588L27.5493 25.1608V59.5535L25.294 60.8694L24.4651 60.366L24.3873 0.515981L25.2714 0.000244141L37.0781 6.74166V14.3754L27.5493 9.47179V17.6806L37.1846 22.8359L37.0781 30.2588Z" fill="#FEC200"/>
<path fill-rule="evenodd" clip-rule="evenodd" d="M51.3344 45.6758L29.387 58.4812L29.4525 46.7482L29.387 34.7389L37.078 38.8546V45.4589L45.4874 41.0096V34.7594L38.9199 31.2454V7.79785L51.3344 14.9138V28.2493L45.4874 25.2408V18.704L43.8869 17.8793V21.9908V26.4217L51.3344 30.4084V45.6758Z" fill="#FEC200"/>
</g>

</symbol><symbol id="human" viewBox="0 0 35 43">
<g id="human 1" clip-path="url(#clip0_105_97)">
<path id="Vector" d="M27.3395 10.3983C27.2438 13.2428 26.309 15.9956 24.6526 18.3101C22.7547 21.0313 20.3423 22.5176 17.8841 22.5176C15.4259 22.5176 13.0135 21.0313 11.1155 18.3101C9.45921 15.9956 8.52439 13.2428 8.42871 10.3983C8.42871 7.89053 9.4249 5.48552 11.1981 3.71229C12.9714 1.93906 15.3764 0.942871 17.8841 0.942871C20.3918 0.942871 22.7968 1.93906 24.5701 3.71229C26.3433 5.48552 27.3395 7.89053 27.3395 10.3983Z" stroke-miterlimit="10"/>
<path id="Vector_2" d="M11.573 18.9276C11.4569 18.8655 11.3273 18.8331 11.1957 18.8331C11.0641 18.8331 10.9345 18.8655 10.8184 18.9276C8.0514 20.2493 5.70754 22.316 4.04984 24.8958C2.33629 27.5336 1.42298 30.6111 1.42017 33.7566C1.42141 33.9715 1.50774 34.177 1.66027 34.3283C6.10232 38.3594 11.8857 40.5929 17.8842 40.5938C19.0743 40.5928 20.2627 40.5049 21.44 40.3308" stroke-miterlimit="10"/>
<path id="Vector_3" d="M33.9823 30.2695C33.5729 28.3502 32.8174 26.5215 31.7528 24.8729C30.0879 22.2951 27.741 20.2292 24.9729 18.9047C24.8568 18.8426 24.7272 18.8102 24.5956 18.8102C24.4639 18.8102 24.3343 18.8426 24.2183 18.9047" stroke-miterlimit="10"/>
<path id="Vector_4" d="M25.8531 41.5657C30.5889 41.5657 34.4281 37.7265 34.4281 32.9907C34.4281 28.2548 30.5889 24.4156 25.8531 24.4156C21.1172 24.4156 17.2781 28.2548 17.2781 32.9907C17.2781 37.7265 21.1172 41.5657 25.8531 41.5657Z" stroke-miterlimit="10"/>
<path id="Vector_5" d="M21.4399 32.659L25.2129 36.432L31.0783 30.6238" stroke-linecap="round" stroke-linejoin="round"/>
</g>

</symbol><symbol id="icon1" viewBox="0 0 70 36">
            <path d="M6.9739 30.8153H63.0244C65.5269 30.8152 75.5358 -3.68471 35.4998 2.81531C-16.1598 11.2025 0.894099 33.9766 26.9922 34.3153C104.062 35.3153 54.5169 -6.68469 23.489 9.31527"/>
        </symbol><symbol id="logo" viewBox="0 0 169 61">
<path d="M73.8859 25C73.5926 24.5067 73.2526 23.9533 72.8659 23.34C72.4926 22.7267 72.0859 22.0933 71.6459 21.44C71.2059 20.7733 70.7459 20.1 70.2659 19.42C69.7992 18.74 69.3326 18.0867 68.8659 17.46C68.3992 16.82 67.9459 16.22 67.5059 15.66C67.0659 15.1 66.6592 14.6067 66.2859 14.18V25H64.3859V11.14H65.9259C66.5526 11.8067 67.2192 12.5867 67.9259 13.48C68.6459 14.36 69.3526 15.2733 70.0459 16.22C70.7526 17.1533 71.4126 18.0733 72.0259 18.98C72.6526 19.8867 73.1792 20.6933 73.6059 21.4V11.14H75.5059V25H73.8859ZM79.7367 25V11.14H88.1967V12.8H81.6767V16.92H87.4767V18.54H81.6767V23.34H88.6967V25H79.7367ZM91.9625 25V11.14H100.422V12.8H93.9025V16.92H99.7025V18.54H93.9025V23.34H100.922V25H91.9625ZM115.568 18.06C115.568 19.26 115.382 20.3067 115.008 21.2C114.635 22.08 114.108 22.8133 113.428 23.4C112.748 23.9733 111.935 24.4067 110.988 24.7C110.042 24.98 109.002 25.12 107.868 25.12C107.308 25.12 106.688 25.0933 106.008 25.04C105.342 25 104.735 24.9133 104.188 24.78V11.34C104.735 11.2067 105.342 11.12 106.008 11.08C106.688 11.0267 107.308 11 107.868 11C109.002 11 110.042 11.1467 110.988 11.44C111.935 11.72 112.748 12.1533 113.428 12.74C114.108 13.3133 114.635 14.0467 115.008 14.94C115.382 15.82 115.568 16.86 115.568 18.06ZM108.028 23.42C109.868 23.42 111.242 22.9533 112.148 22.02C113.055 21.0733 113.508 19.7533 113.508 18.06C113.508 16.3667 113.055 15.0533 112.148 14.12C111.242 13.1733 109.868 12.7 108.028 12.7C107.482 12.7 107.055 12.7067 106.748 12.72C106.455 12.7333 106.248 12.7467 106.128 12.76V23.36C106.248 23.3733 106.455 23.3867 106.748 23.4C107.055 23.4133 107.482 23.42 108.028 23.42ZM124.675 25V11.14H133.035V12.8H126.615V16.98H132.315V18.62H126.615V25H124.675ZM135.403 18.06C135.403 16.8733 135.577 15.8267 135.923 14.92C136.283 14.0133 136.763 13.26 137.363 12.66C137.977 12.0467 138.683 11.5867 139.483 11.28C140.297 10.9733 141.157 10.82 142.063 10.82C142.957 10.82 143.797 10.9733 144.583 11.28C145.383 11.5867 146.083 12.0467 146.683 12.66C147.283 13.26 147.757 14.0133 148.103 14.92C148.463 15.8267 148.643 16.8733 148.643 18.06C148.643 19.2467 148.463 20.2933 148.103 21.2C147.757 22.1067 147.283 22.8667 146.683 23.48C146.083 24.08 145.383 24.5333 144.583 24.84C143.797 25.1467 142.957 25.3 142.063 25.3C141.157 25.3 140.297 25.1467 139.483 24.84C138.683 24.5333 137.977 24.08 137.363 23.48C136.763 22.8667 136.283 22.1067 135.923 21.2C135.577 20.2933 135.403 19.2467 135.403 18.06ZM137.443 18.06C137.443 18.9 137.55 19.6667 137.763 20.36C137.977 21.04 138.277 21.62 138.663 22.1C139.063 22.58 139.543 22.9533 140.103 23.22C140.677 23.4733 141.317 23.6 142.023 23.6C142.73 23.6 143.363 23.4733 143.923 23.22C144.483 22.9533 144.957 22.58 145.343 22.1C145.743 21.62 146.05 21.04 146.263 20.36C146.477 19.6667 146.583 18.9 146.583 18.06C146.583 17.22 146.477 16.46 146.263 15.78C146.05 15.0867 145.743 14.5 145.343 14.02C144.957 13.54 144.483 13.1733 143.923 12.92C143.363 12.6533 142.73 12.52 142.023 12.52C141.317 12.52 140.677 12.6533 140.103 12.92C139.543 13.1733 139.063 13.54 138.663 14.02C138.277 14.5 137.977 15.0867 137.763 15.78C137.55 16.46 137.443 17.22 137.443 18.06ZM159.11 19.2C159.323 19.4667 159.59 19.82 159.91 20.26C160.243 20.6867 160.583 21.1667 160.93 21.7C161.276 22.22 161.616 22.7667 161.95 23.34C162.296 23.9133 162.59 24.4667 162.83 25H160.71C160.443 24.4933 160.15 23.98 159.83 23.46C159.523 22.94 159.21 22.4467 158.89 21.98C158.57 21.5 158.25 21.0533 157.93 20.64C157.623 20.2267 157.343 19.8667 157.09 19.56C156.916 19.5733 156.736 19.58 156.55 19.58C156.376 19.58 156.196 19.58 156.01 19.58H154.27V25H152.33V11.34C152.876 11.2067 153.483 11.12 154.15 11.08C154.83 11.0267 155.45 11 156.01 11C157.956 11 159.436 11.3667 160.45 12.1C161.476 12.8333 161.99 13.9267 161.99 15.38C161.99 16.3 161.743 17.0867 161.25 17.74C160.77 18.3933 160.056 18.88 159.11 19.2ZM156.17 12.7C155.343 12.7 154.71 12.72 154.27 12.76V17.98H155.65C156.316 17.98 156.916 17.9467 157.45 17.88C157.983 17.8133 158.43 17.6867 158.79 17.5C159.163 17.3133 159.45 17.0533 159.65 16.72C159.85 16.3733 159.95 15.92 159.95 15.36C159.95 14.84 159.85 14.4067 159.65 14.06C159.45 13.7133 159.176 13.44 158.83 13.24C158.496 13.04 158.096 12.9 157.63 12.82C157.176 12.74 156.69 12.7 156.17 12.7Z" fill="white"/>
<path d="M67.6859 47.12C68.5926 47.12 69.2526 46.9667 69.6659 46.66C70.0792 46.3533 70.2859 45.92 70.2859 45.36C70.2859 45.0267 70.2126 44.74 70.0659 44.5C69.9326 44.26 69.7326 44.0467 69.4659 43.86C69.2126 43.66 68.8992 43.48 68.5259 43.32C68.1526 43.1467 67.7259 42.98 67.2459 42.82C66.7659 42.6467 66.2992 42.46 65.8459 42.26C65.4059 42.0467 65.0126 41.7867 64.6659 41.48C64.3326 41.1733 64.0592 40.8067 63.8459 40.38C63.6459 39.9533 63.5459 39.44 63.5459 38.84C63.5459 37.5867 63.9792 36.6067 64.8459 35.9C65.7126 35.18 66.8926 34.82 68.3859 34.82C69.2526 34.82 70.0192 34.92 70.6859 35.12C71.3659 35.3067 71.8992 35.5133 72.2859 35.74L71.5059 37.78C71.0526 37.5267 70.5526 37.3333 70.0059 37.2C69.4726 37.0667 68.9192 37 68.3459 37C67.6659 37 67.1326 37.14 66.7459 37.42C66.3726 37.7 66.1859 38.0933 66.1859 38.6C66.1859 38.9067 66.2459 39.1733 66.3659 39.4C66.4992 39.6133 66.6792 39.8067 66.9059 39.98C67.1459 40.1533 67.4192 40.3133 67.7259 40.46C68.0459 40.6067 68.3926 40.7467 68.7659 40.88C69.4192 41.12 69.9992 41.3667 70.5059 41.62C71.0259 41.86 71.4592 42.1533 71.8059 42.5C72.1659 42.8333 72.4392 43.2333 72.6259 43.7C72.8126 44.1533 72.9059 44.7067 72.9059 45.36C72.9059 46.6133 72.4592 47.5867 71.5659 48.28C70.6859 48.96 69.3926 49.3 67.6859 49.3C67.1126 49.3 66.5859 49.26 66.1059 49.18C65.6392 49.1133 65.2192 49.0267 64.8459 48.92C64.4859 48.8133 64.1726 48.7067 63.9059 48.6C63.6392 48.48 63.4259 48.3733 63.2659 48.28L64.0059 46.22C64.3659 46.42 64.8526 46.62 65.4659 46.82C66.0792 47.02 66.8192 47.12 67.6859 47.12ZM75.9267 49V35.14H84.8267V37.28H78.4467V40.7H84.1267V42.8H78.4467V46.86H85.3067V49H75.9267ZM92.2654 35C94.2654 35 95.7921 35.3667 96.8454 36.1C97.9121 36.8333 98.4454 37.9533 98.4454 39.46C98.4454 41.34 97.5188 42.6133 95.6654 43.28C95.9188 43.5867 96.2054 43.96 96.5254 44.4C96.8454 44.84 97.1721 45.32 97.5054 45.84C97.8388 46.3467 98.1588 46.8733 98.4654 47.42C98.7721 47.9533 99.0454 48.48 99.2854 49H96.4654C96.2121 48.52 95.9388 48.04 95.6454 47.56C95.3521 47.0667 95.0521 46.5933 94.7454 46.14C94.4521 45.6733 94.1588 45.24 93.8654 44.84C93.5721 44.4267 93.2988 44.06 93.0454 43.74C92.8588 43.7533 92.6988 43.76 92.5654 43.76C92.4321 43.76 92.3054 43.76 92.1854 43.76H90.9654V49H88.4454V35.34C89.0588 35.2067 89.7121 35.12 90.4054 35.08C91.0988 35.0267 91.7188 35 92.2654 35ZM92.4454 37.18C91.9121 37.18 91.4188 37.2 90.9654 37.24V41.72H92.0654C92.6788 41.72 93.2188 41.6867 93.6854 41.62C94.1521 41.5533 94.5388 41.4333 94.8454 41.26C95.1654 41.0867 95.4054 40.8533 95.5654 40.56C95.7254 40.2667 95.8054 39.8933 95.8054 39.44C95.8054 39.0133 95.7254 38.6533 95.5654 38.36C95.4054 38.0667 95.1721 37.8333 94.8654 37.66C94.5721 37.4867 94.2188 37.3667 93.8054 37.3C93.3921 37.22 92.9388 37.18 92.4454 37.18ZM105.823 49C104.823 46.84 103.856 44.58 102.923 42.22C102.003 39.86 101.143 37.5 100.343 35.14H103.123C103.443 36.0733 103.769 37.0267 104.103 38C104.436 38.9733 104.769 39.9333 105.103 40.88C105.436 41.8133 105.769 42.72 106.103 43.6C106.436 44.48 106.763 45.2867 107.083 46.02C107.389 45.2867 107.709 44.4867 108.043 43.62C108.376 42.74 108.709 41.8267 109.043 40.88C109.389 39.9333 109.729 38.9733 110.063 38C110.396 37.0267 110.716 36.0733 111.023 35.14H113.723C112.909 37.5 112.043 39.86 111.123 42.22C110.203 44.58 109.243 46.84 108.243 49H105.823ZM116.315 35.14H118.835V49H116.315V35.14ZM129.115 49.3C128.075 49.3 127.141 49.14 126.315 48.82C125.488 48.5 124.788 48.0333 124.215 47.42C123.641 46.7933 123.201 46.0333 122.895 45.14C122.588 44.2467 122.435 43.22 122.435 42.06C122.435 40.9 122.608 39.8733 122.955 38.98C123.315 38.0867 123.801 37.3333 124.415 36.72C125.028 36.0933 125.748 35.62 126.575 35.3C127.401 34.98 128.288 34.82 129.235 34.82C129.808 34.82 130.328 34.8667 130.795 34.96C131.261 35.04 131.668 35.1333 132.015 35.24C132.361 35.3467 132.648 35.46 132.875 35.58C133.101 35.7 133.261 35.7867 133.355 35.84L132.615 37.9C132.295 37.7 131.835 37.5133 131.235 37.34C130.648 37.1533 130.008 37.06 129.315 37.06C128.715 37.06 128.155 37.1667 127.635 37.38C127.115 37.58 126.661 37.8867 126.275 38.3C125.901 38.7133 125.608 39.2333 125.395 39.86C125.181 40.4867 125.075 41.2133 125.075 42.04C125.075 42.7733 125.155 43.4467 125.315 44.06C125.488 44.6733 125.748 45.2067 126.095 45.66C126.441 46.1 126.881 46.4467 127.415 46.7C127.948 46.94 128.588 47.06 129.335 47.06C130.228 47.06 130.955 46.9733 131.515 46.8C132.075 46.6133 132.508 46.44 132.815 46.28L133.495 48.34C133.335 48.4467 133.115 48.5533 132.835 48.66C132.568 48.7667 132.248 48.8733 131.875 48.98C131.501 49.0733 131.081 49.1467 130.615 49.2C130.148 49.2667 129.648 49.3 129.115 49.3ZM136.509 49V35.14H145.409V37.28H139.029V40.7H144.709V42.8H139.029V46.86H145.889V49H136.509Z" fill="#FEC200"/>
<g clip-path="url(#clip0_199_457)">
<path fill-rule="evenodd" clip-rule="evenodd" d="M18.9002 56.9955L12.4003 53.0558L6.96666 34.5937V49.7649L0.00012207 45.5449V14.746L6.96666 10.6815L12.0667 30.4003L12.0933 7.66897L18.9002 3.71704L18.7181 30.1056L18.9002 56.9955Z" fill="#1E47B0"/>
<path fill-rule="evenodd" clip-rule="evenodd" d="M22.537 1.59473V59.1976L21.8555 58.7862L21.7634 30.2283L21.8739 1.98153L22.537 1.59473Z" fill="#1E47B0"/>
<path fill-rule="evenodd" clip-rule="evenodd" d="M22.537 1.59473V59.1976L21.8555 58.7862L21.7634 30.2283L21.8739 1.98153L22.537 1.59473Z" fill="#1E47B0"/>
<path fill-rule="evenodd" clip-rule="evenodd" d="M23.7323 0.894531V59.9218L23.0549 59.5125L22.9567 29.5261L23.0692 1.28133L23.7323 0.894531Z" fill="#1E47B0"/>
<path fill-rule="evenodd" clip-rule="evenodd" d="M21.1372 2.41309V58.35L20.4741 57.9489V30.0909V2.79989L21.1372 2.41309Z" fill="#1E47B0"/>
<path fill-rule="evenodd" clip-rule="evenodd" d="M37.0781 30.2588L27.5493 25.1608V59.5535L25.294 60.8694L24.4651 60.366L24.3873 0.515981L25.2714 0.000244141L37.0781 6.74166V14.3754L27.5493 9.47179V17.6806L37.1846 22.8359L37.0781 30.2588Z" fill="#FEC200"/>
<path fill-rule="evenodd" clip-rule="evenodd" d="M51.3344 45.6758L29.387 58.4812L29.4525 46.7482L29.387 34.7389L37.078 38.8546V45.4589L45.4874 41.0096V34.7594L38.9199 31.2454V7.79785L51.3344 14.9138V28.2493L45.4874 25.2408V18.704L43.8869 17.8793V21.9908V26.4217L51.3344 30.4084V45.6758Z" fill="#FEC200"/>
</g>

</symbol><symbol id="logo_f" viewBox="0 0 174 38">
<g clip-path="url(#clip0_182_288)">
<path d="M9.03369 27.9512C6.66071 28.0295 4.35295 27.1502 2.60957 25.5036C1.7412 24.6691 1.0587 23.6535 0.608397 22.5257C0.158093 21.3979 -0.0494778 20.1844 -0.00022851 18.9674C-0.0471813 17.7568 0.161613 16.5501 0.611953 15.4293C1.06229 14.3085 1.74361 13.3 2.60957 12.4723C4.35466 10.827 6.66004 9.9437 9.03369 10.0109C10.4365 9.94555 11.8305 10.2695 13.0676 10.9484C14.3048 11.6274 15.3388 12.6359 16.0601 13.867L13.0488 15.5352C12.6277 14.863 12.0537 14.3047 11.3758 13.908C10.6627 13.4782 9.84817 13.256 9.02031 13.2654C8.31123 13.2454 7.60604 13.3788 6.95099 13.6569C6.29594 13.935 5.70583 14.3514 5.21937 14.8789C4.71605 15.4271 4.32435 16.0721 4.06703 16.7763C3.8097 17.4805 3.69188 18.23 3.72041 18.9811C3.69188 19.7322 3.8097 20.4816 4.06703 21.1858C4.32435 21.8901 4.71605 22.535 5.21937 23.0833C5.70735 23.6125 6.29963 24.0299 6.95713 24.3081C7.61463 24.5862 8.32239 24.7187 9.03369 24.6968C9.73884 24.6963 10.4377 24.5618 11.0948 24.3003C11.6667 24.0967 12.1941 23.7808 12.6473 23.3704V21.251H8.16376V18.0239H16.1939V24.6831C15.3059 25.7284 14.2048 26.5626 12.9679 27.1271C11.731 27.6917 10.3882 27.9729 9.03369 27.9512Z" fill="white"/>
<path d="M31.6387 27.6094H19.5935V10.2844H31.6387V13.5388H23.2472V17.2035H31.4514V20.4442H23.2472V24.3686H31.6387V27.6094Z" fill="white"/>
<path d="M50.1484 27.6094H46.6686L38.6385 16.301V27.6094H35.0249V10.2844H38.6786L46.5348 21.2236V10.2844H50.1484V27.6094Z" fill="white"/>
<path d="M57.6163 27.6094H54.0027V10.2844H57.6163V27.6094Z" fill="white"/>
<path d="M74.8544 25.9822C74.0744 26.6752 73.1679 27.2036 72.187 27.5369C71.2062 27.8701 70.1704 28.0017 69.1396 27.9239C68.1077 28.0013 67.071 27.8683 66.0899 27.5327C65.1088 27.197 64.2029 26.6653 63.4248 25.9685C62.7652 25.2739 62.2526 24.448 61.9187 23.5424C61.5849 22.6367 61.437 21.6706 61.4842 20.704V10.2844H65.1513V20.5809C65.1233 21.1237 65.2012 21.6667 65.3804 22.1784C65.5596 22.6902 65.8366 23.1604 66.1952 23.5619C66.5844 23.9443 67.047 24.2402 67.5538 24.4308C68.0606 24.6214 68.6005 24.7027 69.1396 24.6695C69.6767 24.7033 70.2147 24.6223 70.7194 24.4316C71.2241 24.2408 71.6843 23.9446 72.0706 23.5619C72.4268 23.1593 72.7013 22.6886 72.8782 22.1769C73.0551 21.6652 73.1309 21.1227 73.1011 20.5809V10.2844H76.7816V20.6766C76.8345 21.6488 76.6907 22.6217 76.3591 23.5346C76.0275 24.4474 75.5153 25.2806 74.8544 25.9822V25.9822Z" fill="white"/>
<path d="M86.6587 27.9239C85.3432 27.9963 84.0272 27.7909 82.793 27.3203C81.5587 26.8498 80.4326 26.1243 79.4851 25.1891L81.4391 22.3859C82.1214 23.137 82.9505 23.7333 83.8727 24.1361C84.7949 24.5389 85.7897 24.7392 86.7925 24.7242C87.5752 24.7713 88.3524 24.5656 89.0142 24.1362C89.2467 23.9945 89.44 23.7945 89.5758 23.5553C89.7116 23.316 89.7855 23.0453 89.7905 22.7688C89.7814 22.5271 89.7097 22.2921 89.5828 22.0879C89.4558 21.8837 89.2781 21.7176 89.0678 21.6065C88.512 21.2694 87.899 21.0421 87.261 20.9365C86.4661 20.778 85.6798 20.5772 84.9055 20.3348C84.1024 20.0907 83.3155 19.7939 82.5499 19.446C81.7806 19.0917 81.1304 18.5137 80.6805 17.7841C80.2307 17.0546 80.0011 16.2058 80.0205 15.3438C80.0125 14.6219 80.1664 13.9077 80.4703 13.2559C80.7742 12.6041 81.22 12.0321 81.7737 11.5835C83.1037 10.5146 84.7681 9.97532 86.458 10.0657C88.8856 9.96601 91.2562 10.8338 93.0694 12.486L91.0619 15.2208C89.7406 13.9083 87.9661 13.1811 86.1234 13.197C85.497 13.1578 84.8744 13.3204 84.3433 13.6619C84.1429 13.8034 83.9803 13.9939 83.8705 14.216C83.7606 14.4381 83.7069 14.6848 83.7143 14.9336C83.728 15.1601 83.8028 15.3784 83.9304 15.5642C84.0579 15.75 84.2333 15.8962 84.437 15.9865C84.9995 16.3034 85.6104 16.5207 86.2438 16.6292C87.0355 16.7879 87.8175 16.9933 88.5859 17.2445C89.3846 17.4997 90.1668 17.8057 90.9281 18.1607C91.6922 18.5221 92.3376 19.1018 92.7864 19.8297C93.2352 20.5576 93.4683 21.4026 93.4576 22.2629C93.4822 23.0235 93.3385 23.78 93.0373 24.4761C92.736 25.1721 92.285 25.7898 91.7177 26.283C90.2826 27.4399 88.4842 28.0232 86.6587 27.9239V27.9239Z" fill="white"/>
<path d="M103.95 27.6094H100.377V13.5388H95.3582V10.2844H108.889V13.5388H103.95V27.6094Z" fill="white"/>
<path d="M125.07 25.9822C123.425 27.25 121.422 27.9359 119.362 27.9359C117.302 27.9359 115.298 27.25 113.654 25.9822C112.994 25.2875 112.481 24.4617 112.148 23.5561C111.814 22.6504 111.666 21.6842 111.713 20.7177V10.2844H115.367V20.5809C115.344 21.1233 115.427 21.6649 115.611 22.1742C115.795 22.6836 116.076 23.1506 116.437 23.5482C116.827 23.9306 117.289 24.2265 117.796 24.4171C118.303 24.6078 118.843 24.689 119.382 24.6558C119.921 24.6916 120.462 24.6115 120.969 24.4207C121.476 24.2299 121.938 23.9327 122.326 23.5482C122.682 23.1457 122.957 22.6749 123.134 22.1632C123.311 21.6515 123.386 21.1091 123.357 20.5673V10.2844H127.01V20.6766C127.062 21.6498 126.916 22.6233 126.582 23.5362C126.248 24.4491 125.733 25.2818 125.07 25.9822Z" fill="white"/>
<path d="M137.543 27.6093H130.851V10.2844H137.543C139.93 10.1849 142.26 11.0438 144.034 12.6773C144.867 13.4825 145.521 14.4605 145.952 15.5454C146.384 16.6304 146.583 17.7971 146.537 18.9674C146.583 20.1343 146.385 21.2978 145.956 22.3802C145.526 23.4626 144.876 24.4388 144.048 25.2437C142.265 26.8694 139.93 27.7184 137.543 27.6093ZM137.543 24.3686C138.261 24.4046 138.979 24.2843 139.648 24.0155C140.317 23.7468 140.922 23.3358 141.424 22.8097C142.373 21.768 142.886 20.3897 142.856 18.9674C142.929 17.5349 142.449 16.1305 141.518 15.0566C141.007 14.5348 140.393 14.1297 139.717 13.868C139.041 13.6064 138.318 13.4942 137.597 13.5388H134.518V24.3686H137.543Z" fill="white"/>
<path d="M153.229 27.6094H149.615V10.2844H153.229V27.6094Z" fill="white"/>
<path d="M165.127 27.9242C163.957 27.9633 162.791 27.7592 161.701 27.3244C160.61 26.8895 159.618 26.233 158.783 25.3945C157.956 24.5566 157.307 23.5534 156.876 22.4477C156.445 21.3419 156.243 20.1572 156.28 18.9677C156.243 17.7783 156.445 16.5936 156.876 15.4878C157.307 14.3821 157.956 13.3789 158.783 12.541C160.514 10.9073 162.784 10 165.14 10C167.497 10 169.767 10.9073 171.497 12.541C172.322 13.38 172.969 14.3837 173.397 15.4895C173.826 16.5952 174.026 17.7793 173.987 18.9677C174.026 20.1595 173.824 21.3467 173.394 22.455C172.963 23.5633 172.313 24.5687 171.484 25.4082C170.645 26.2433 169.649 26.8966 168.557 27.329C167.464 27.7613 166.298 27.9638 165.127 27.9242V27.9242ZM161.406 23.0426C161.891 23.5528 162.472 23.9585 163.113 24.2354C163.755 24.5124 164.444 24.6551 165.14 24.6551C165.837 24.6551 166.526 24.5124 167.167 24.2354C167.809 23.9585 168.389 23.5528 168.874 23.0426C169.846 21.9123 170.354 20.4433 170.293 18.9404C170.354 17.4376 169.846 15.9685 168.874 14.8382C168.389 14.328 167.809 13.9223 167.167 13.6454C166.526 13.3684 165.837 13.2257 165.14 13.2257C164.444 13.2257 163.755 13.3684 163.113 13.6454C162.472 13.9223 161.891 14.328 161.406 14.8382C160.442 15.9721 159.939 17.4398 160.001 18.9404C159.939 20.441 160.442 21.9088 161.406 23.0426V23.0426Z" fill="white"/>
</g>

</symbol><symbol id="mc" viewBox="0 0 78 78">
<g clip-path="url(#clip0_113_233)">
<path d="M77.8986 38.9503C77.8986 51.8098 67.5122 62.3199 54.5291 62.3199C41.6697 62.3199 31.1595 51.8098 31.1595 38.9503C31.1595 26.0909 41.546 15.5808 54.4054 15.5808C67.5122 15.5808 77.8986 26.0909 77.8986 38.9503Z" fill="#FFB600"/>
<path d="M54.5291 15.5808C67.3885 15.5808 77.8986 26.0909 77.8986 38.9503C77.8986 51.8098 67.5122 62.3199 54.5291 62.3199C41.6697 62.3199 31.1595 51.8098 31.1595 38.9503" fill="#F7981D"/>
<path d="M54.5286 15.5808C67.388 15.5808 77.8981 26.0909 77.8981 38.9503C77.8981 51.8098 67.5116 62.3199 54.5286 62.3199" fill="#FF8500"/>
<path d="M23.1222 15.5808C10.3865 15.7045 0 26.0909 0 38.9503C0 51.8098 10.3865 62.3199 23.3695 62.3199C29.4283 62.3199 34.8688 59.9706 39.0729 56.2611C39.9384 55.5192 40.6803 54.6537 41.4222 53.7881H36.5999C35.9817 53.0462 35.3634 52.1807 34.8688 51.4388H43.1533C43.6479 50.6969 44.1424 49.8314 44.5134 48.9659H33.5087C33.1377 48.224 32.7668 47.3584 32.5195 46.4929H45.3789C46.1208 44.1436 46.6154 41.6706 46.6154 39.074C46.6154 37.3429 46.3681 35.7355 46.1208 34.1281H31.7776C31.9013 33.2625 32.1486 32.5206 32.3959 31.6551H45.2553C45.008 30.7896 44.637 29.924 44.2661 29.1821H33.385C33.756 28.3166 34.2506 27.5747 34.7452 26.7092H43.0296C42.535 25.8436 41.9168 24.9781 41.1749 24.2362H36.5999C37.3418 23.3707 38.0837 22.6288 38.9492 21.8869C34.8688 18.0538 29.3046 15.8281 23.2459 15.8281C23.2459 15.5808 23.2459 15.5808 23.1222 15.5808Z" fill="#FF5050"/>
<path d="M0 38.9488C0 51.8082 10.3865 62.3183 23.3695 62.3183C29.4283 62.3183 34.8688 59.969 39.0729 56.2595C39.9384 55.5177 40.6803 54.6521 41.4222 53.7866H36.5999C35.9817 53.0447 35.3634 52.1791 34.8688 51.4373H43.1533C43.6479 50.6954 44.1424 49.8298 44.5134 48.9643H33.5087C33.1377 48.2224 32.7668 47.3569 32.5195 46.4913H45.3789C46.1208 44.142 46.6154 41.669 46.6154 39.0724C46.6154 37.3413 46.3681 35.7339 46.1208 34.1265H31.7776C31.9013 33.261 32.1486 32.5191 32.3959 31.6535H45.2553C45.008 30.788 44.637 29.9224 44.2661 29.1806H33.385C33.756 28.315 34.2506 27.5731 34.7452 26.7076H43.0296C42.535 25.8421 41.9168 24.9765 41.1749 24.2346H36.5999C37.3418 23.3691 38.0837 22.6272 38.9492 21.8853C34.8688 18.0522 29.3046 15.8265 23.2459 15.8265H23.1222" fill="#E52836"/>
<path d="M23.3696 62.3183C29.4284 62.3183 34.8689 59.969 39.0729 56.2595C39.9385 55.5177 40.6804 54.6521 41.4223 53.7866H36.6C35.9817 53.0447 35.3635 52.1791 34.8689 51.4373H43.1533C43.6479 50.6954 44.1425 49.8298 44.5135 48.9643H33.5088C33.1378 48.2224 32.7669 47.3569 32.5196 46.4913H45.379C46.1209 44.142 46.6155 41.669 46.6155 39.0724C46.6155 37.3413 46.3682 35.7339 46.1209 34.1265H31.7777C31.9013 33.261 32.1486 32.5191 32.3959 31.6535H45.2554C45.0081 30.788 44.6371 29.9224 44.2662 29.1806H33.3851C33.7561 28.315 34.2507 27.5731 34.7453 26.7076H43.0297C42.5351 25.8421 41.9169 24.9765 41.175 24.2346H36.6C37.3419 23.3691 38.0838 22.6272 38.9493 21.8853C34.8689 18.0522 29.3047 15.8265 23.246 15.8265H23.1223" fill="#CB2026"/>
<path d="M31.6536 44.8839L32.0245 42.7818C31.9008 42.7818 31.6536 42.9055 31.4063 42.9055C30.5407 42.9055 30.4171 42.4109 30.5407 42.1636L31.2826 37.8359H32.6427L33.0137 35.4866H31.7772L32.0245 34.0028H29.5515C29.5515 34.0028 28.0677 42.1636 28.0677 43.1528C28.0677 44.6366 28.9333 45.2548 30.0461 45.2548C30.788 45.2548 31.4063 45.0075 31.6536 44.8839Z" fill="#1D252D"/>
<path d="M32.5195 40.9303C32.5195 44.3924 34.8688 45.258 36.8472 45.258C38.7019 45.258 39.4438 44.887 39.4438 44.887L39.9384 42.5377C39.9384 42.5377 38.5783 43.156 37.3418 43.156C34.6216 43.156 35.1161 41.1776 35.1161 41.1776H40.1857C40.1857 41.1776 40.5567 39.5702 40.5567 38.9519C40.5567 37.3445 39.6911 35.3661 36.9709 35.3661C34.3743 35.1188 32.5195 37.8391 32.5195 40.9303ZM36.8472 37.3445C38.2074 37.3445 37.9601 38.9519 37.9601 39.0756H35.2398C35.2398 38.9519 35.4871 37.3445 36.8472 37.3445Z" fill="#1D252D"/>
<path d="M52.5505 44.8852L53.0451 42.165C53.0451 42.165 51.8086 42.7832 50.9431 42.7832C49.212 42.7832 48.4701 41.4231 48.4701 39.9393C48.4701 36.9718 49.9539 35.3643 51.685 35.3643C52.9215 35.3643 53.9107 36.1062 53.9107 36.1062L54.2816 33.5096C54.2816 33.5096 52.7978 32.8914 51.4377 32.8914C48.5938 32.8914 45.7499 35.3643 45.7499 40.063C45.7499 43.1542 47.2337 45.2562 50.2012 45.2562C51.1904 45.2562 52.5505 44.8852 52.5505 44.8852Z" fill="#1D252D"/>
<path d="M18.0526 35.1176C16.3216 35.1176 15.0851 35.6121 15.0851 35.6121L14.7141 37.7142C14.7141 37.7142 15.827 37.2196 17.4344 37.2196C18.2999 37.2196 19.0418 37.3432 19.0418 38.0851C19.0418 38.5797 18.9182 38.7034 18.9182 38.7034C18.9182 38.7034 18.1763 38.7034 17.8053 38.7034C15.7033 38.7034 13.354 39.5689 13.354 42.4128C13.354 44.6385 14.8378 45.1331 15.7033 45.1331C17.4344 45.1331 18.1763 44.0202 18.2999 44.0202L18.1763 45.0094H20.402L21.3911 38.2088C21.3911 35.2412 18.9182 35.1176 18.0526 35.1176ZM18.5472 40.6817C18.5472 41.0527 18.2999 43.031 16.8162 43.031C16.0743 43.031 15.827 42.4128 15.827 42.0419C15.827 41.4236 16.1979 40.5581 18.0526 40.5581C18.4236 40.6817 18.5472 40.6817 18.5472 40.6817Z" fill="#1D252D"/>
<path d="M23.7404 45.1326C24.3586 45.1326 27.4498 45.2562 27.4498 41.9177C27.4498 38.8265 24.4823 39.4447 24.4823 38.2083C24.4823 37.59 24.9769 37.3427 25.8424 37.3427C26.2134 37.3427 27.5735 37.4664 27.5735 37.4664L27.9444 35.2407C27.9444 35.2407 27.0789 34.9934 25.5951 34.9934C23.7404 34.9934 21.8857 35.7353 21.8857 38.2083C21.8857 41.0522 24.9769 40.8049 24.9769 41.9177C24.9769 42.6596 24.1113 42.7832 23.4931 42.7832C22.3803 42.7832 21.2674 42.4123 21.2674 42.4123L20.8965 44.638C21.0201 44.8853 21.6384 45.1326 23.7404 45.1326Z" fill="#1D252D"/>
<path d="M73.076 33.1396L72.5814 36.4782C72.5814 36.4782 71.5922 35.2417 70.2321 35.2417C68.0064 35.2417 66.0281 37.9619 66.0281 41.1768C66.0281 43.1552 67.0173 45.2572 69.1193 45.2572C70.6031 45.2572 71.4686 44.268 71.4686 44.268L71.3449 45.1335H73.8179L75.6726 33.2633L73.076 33.1396ZM71.9632 39.693C71.9632 41.0531 71.3449 42.7842 69.9848 42.7842C69.1193 42.7842 68.6247 42.0423 68.6247 40.8058C68.6247 38.8275 69.4902 37.591 70.6031 37.591C71.4686 37.591 71.9632 38.2092 71.9632 39.693Z" fill="#1D252D"/>
<path d="M4.5749 45.0099L6.05868 36.1072L6.30598 45.0099H8.03706L11.2519 36.1072L9.89178 45.0099H12.4884L14.4668 33.1396H10.3864L7.91341 40.4349L7.78976 33.1396H4.20396L2.22559 45.0099H4.5749Z" fill="#1D252D"/>
<path d="M42.9061 45.0074C43.6479 40.927 43.7716 37.5885 45.5027 38.2067C45.75 36.5993 46.1209 35.981 46.3682 35.3628C46.3682 35.3628 46.2446 35.3628 45.8736 35.3628C44.7608 35.3628 43.8952 36.8466 43.8952 36.8466L44.1425 35.4864H41.7932L40.1858 45.131H42.9061V45.0074Z" fill="#1D252D"/>
<path d="M58.2383 35.1176C56.5072 35.1176 55.2708 35.6121 55.2708 35.6121L54.8998 37.7142C54.8998 37.7142 56.0126 37.2196 57.6201 37.2196C58.4856 37.2196 59.2275 37.3432 59.2275 38.0851C59.2275 38.5797 59.1038 38.7034 59.1038 38.7034C59.1038 38.7034 58.362 38.7034 57.991 38.7034C55.889 38.7034 53.5397 39.5689 53.5397 42.4128C53.5397 44.6385 55.0235 45.1331 55.889 45.1331C57.6201 45.1331 58.362 44.0202 58.4856 44.0202L58.362 45.0094H60.5876L61.5768 38.2088C61.7005 35.2412 59.1038 35.1176 58.2383 35.1176ZM58.8565 40.6817C58.8565 41.0527 58.6093 43.031 57.1255 43.031C56.3836 43.031 56.1363 42.4128 56.1363 42.0419C56.1363 41.4236 56.5072 40.5581 58.362 40.5581C58.7329 40.6817 58.7329 40.6817 58.8565 40.6817Z" fill="#1D252D"/>
<path d="M63.6786 45.0074C64.4205 40.927 64.5442 37.5885 66.2753 38.2067C66.5225 36.5993 66.8935 35.981 67.1408 35.3628C67.1408 35.3628 67.0171 35.3628 66.6462 35.3628C65.5334 35.3628 64.6678 36.8466 64.6678 36.8466L64.9151 35.4864H62.5658L60.9584 45.131H63.6786V45.0074Z" fill="#1D252D"/>
<path d="M27.8209 43.1528C27.8209 44.6366 28.6865 45.2548 29.7993 45.2548C30.6648 45.2548 31.4067 45.0075 31.654 44.8839L32.025 42.7818C31.9013 42.7818 31.654 42.9055 31.4067 42.9055C30.5412 42.9055 30.4175 42.4109 30.5412 42.1636L31.2831 37.8359H32.6432L33.0142 35.4866H31.7777L32.025 34.0028" fill="#DCE5E5"/>
<path d="M33.7561 40.9303C33.7561 44.3924 34.8689 45.258 36.8473 45.258C38.702 45.258 39.4439 44.887 39.4439 44.887L39.9385 42.5377C39.9385 42.5377 38.5784 43.156 37.3419 43.156C34.6216 43.156 35.1162 41.1776 35.1162 41.1776H40.1858C40.1858 41.1776 40.5568 39.5702 40.5568 38.9519C40.5568 37.3445 39.6912 35.3661 36.971 35.3661C34.3743 35.1188 33.7561 37.8391 33.7561 40.9303ZM36.8473 37.3445C38.2074 37.3445 38.4547 38.9519 38.4547 39.0756H35.2399C35.2399 38.9519 35.4872 37.3445 36.8473 37.3445Z" fill="#DCE5E5"/>
<path d="M52.5505 44.8852L53.0451 42.165C53.0451 42.165 51.8086 42.7832 50.9431 42.7832C49.212 42.7832 48.4701 41.4231 48.4701 39.9393C48.4701 36.9718 49.9539 35.3643 51.685 35.3643C52.9215 35.3643 53.9106 36.1062 53.9106 36.1062L54.2816 33.5096C54.2816 33.5096 52.7978 32.8914 51.4377 32.8914C48.5938 32.8914 46.9863 35.3643 46.9863 40.063C46.9863 43.1542 47.2336 45.2562 50.2012 45.2562C51.1904 45.2562 52.5505 44.8852 52.5505 44.8852Z" fill="#DCE5E5"/>
<path d="M14.7141 37.8358C14.7141 37.8358 15.827 37.3412 17.4344 37.3412C18.2999 37.3412 19.0418 37.4648 19.0418 38.2067C19.0418 38.7013 18.9182 38.8249 18.9182 38.8249C18.9182 38.8249 18.1763 38.8249 17.8053 38.8249C15.7033 38.8249 13.354 39.6905 13.354 42.5344C13.354 44.7601 14.8378 45.2546 15.7033 45.2546C17.4344 45.2546 18.1763 44.1418 18.2999 44.1418L18.1763 45.131H20.402L21.3911 38.3303C21.3911 35.4864 18.9182 35.3628 17.929 35.3628L14.7141 37.8358ZM19.7837 40.6797C19.7837 41.0506 18.2999 43.029 16.8162 43.029C16.0743 43.029 15.827 42.4107 15.827 42.0398C15.827 41.4216 16.1979 40.556 18.0526 40.556C18.4236 40.6797 19.7837 40.6797 19.7837 40.6797Z" fill="#DCE5E5"/>
<path d="M21.0203 44.8853C21.0203 44.8853 21.7622 45.1326 23.8642 45.1326C24.4824 45.1326 27.5736 45.2562 27.5736 41.9177C27.5736 38.8265 24.6061 39.4447 24.6061 38.2083C24.6061 37.59 25.1007 37.3427 25.9662 37.3427C26.3371 37.3427 27.6973 37.4664 27.6973 37.4664L28.0682 35.2407C28.0682 35.2407 27.2027 34.9934 25.7189 34.9934C23.8642 34.9934 23.2459 35.7353 23.2459 38.2083C23.2459 41.0522 25.1007 40.8049 25.1007 41.9177C25.1007 42.6596 24.2351 42.7832 23.6169 42.7832" fill="#DCE5E5"/>
<path d="M72.5812 36.4756C72.5812 36.4756 71.592 35.2391 70.2319 35.2391C68.0062 35.2391 67.2643 37.9594 67.2643 41.1742C67.2643 43.1526 67.017 45.2546 69.1191 45.2546C70.6028 45.2546 71.4684 44.2654 71.4684 44.2654L71.3447 45.131H73.8177L75.6724 33.2607L72.5812 36.4756ZM72.4576 39.6904C72.4576 41.0506 71.3447 42.7817 69.9846 42.7817C69.1191 42.7817 68.6245 42.0398 68.6245 40.8033C68.6245 38.8249 69.49 37.5884 70.6028 37.5884C71.4684 37.5884 72.4576 38.2067 72.4576 39.6904Z" fill="#DCE5E5"/>
<path d="M4.5749 45.0099L6.05868 36.1072L6.30598 45.0099H8.03706L11.2519 36.1072L9.89178 45.0099H12.4884L14.4668 33.1396H11.3756L7.91341 40.4349L7.78976 33.1396H6.42963L2.22559 45.0099H4.5749Z" fill="#DCE5E5"/>
<path d="M40.3093 45.0074H42.9059C43.6478 40.927 43.7715 37.5885 45.5026 38.2067C45.7499 36.5993 46.1208 35.981 46.3681 35.3628C46.3681 35.3628 46.2444 35.3628 45.8735 35.3628C44.7607 35.3628 43.8951 36.8466 43.8951 36.8466L44.1424 35.4864" fill="#DCE5E5"/>
<path d="M54.8998 37.8358C54.8998 37.8358 56.0126 37.3412 57.6201 37.3412C58.4856 37.3412 59.2275 37.4648 59.2275 38.2067C59.2275 38.7013 59.1038 38.8249 59.1038 38.8249C59.1038 38.8249 58.362 38.8249 57.991 38.8249C55.889 38.8249 53.5397 39.6905 53.5397 42.5344C53.5397 44.7601 55.0235 45.2546 55.889 45.2546C57.6201 45.2546 58.362 44.1418 58.4856 44.1418L58.362 45.131H60.5876L61.5768 38.3303C61.5768 35.4864 59.1038 35.3628 58.1147 35.3628L54.8998 37.8358ZM59.9694 40.6797C59.9694 41.0506 58.4856 43.029 57.0018 43.029C56.2599 43.029 56.0126 42.4107 56.0126 42.0398C56.0126 41.4216 56.3836 40.556 58.2383 40.556C58.7329 40.6797 59.9694 40.6797 59.9694 40.6797Z" fill="#DCE5E5"/>
<path d="M61.0818 45.0074H63.6784C64.4203 40.927 64.5439 37.5885 66.275 38.2067C66.5223 36.5993 66.8933 35.981 67.1406 35.3628C67.1406 35.3628 67.0169 35.3628 66.646 35.3628C65.5331 35.3628 64.6676 36.8466 64.6676 36.8466L64.9149 35.4864" fill="#DCE5E5"/>
</g>

</symbol><symbol id="phone" viewBox="0 0 32 32">
<g clip-path="url(#clip0_182_328)">
<path fill-rule="evenodd" clip-rule="evenodd" d="M31.4147 28.1474C31.2022 28.3592 30.9459 28.6301 30.6742 28.9166C29.9962 29.6362 29.1492 30.5307 28.6184 30.8934C25.8252 32.8021 22.0885 31.8888 19.4453 30.7875C15.9585 29.3347 12.1623 26.6568 8.75374 23.2478C5.34199 19.8386 2.66436 16.0412 1.21155 12.5564C0.111551 9.91261 -0.803636 6.17512 1.1053 3.38137C1.4678 2.85012 2.36436 2.00443 3.08299 1.32512C3.37049 1.05424 3.63924 0.798303 3.85174 0.586491C4.229 0.211101 4.73956 0.000366211 5.27177 0.000366211C5.80398 0.000366211 6.31454 0.211101 6.6918 0.586491L11.8311 5.72424C12.2062 6.10149 12.4168 6.61191 12.4168 7.14396C12.4168 7.67601 12.2062 8.18643 11.8311 8.56368L10.4311 9.96086C9.9635 10.425 9.65832 11.0277 9.56091 11.6793C9.46351 12.3308 9.57911 12.9964 9.89049 13.577C11.8161 17.2114 14.7889 20.1837 18.4236 22.1087C19.0041 22.42 19.6695 22.5354 20.3209 22.4378C20.9723 22.3403 21.5747 22.0349 22.0385 21.5672L23.4351 20.17C23.8123 19.7946 24.3229 19.5839 24.8551 19.5839C25.3873 19.5839 25.8978 19.7946 26.2751 20.17L31.4147 25.3086C31.7899 25.6857 32.0005 26.1961 32.0005 26.728C32.0005 27.26 31.7899 27.7703 31.4147 28.1474Z"/>
</g>

</symbol><symbol id="phone2" viewBox="0 0 60 60">
<g clip-path="url(#clip0_117_450)">
<path d="M57.7129 52.4421L55.4795 54.6577C54.022 56.1094 52.2863 57.2517 50.3765 58.0162C48.4668 58.7807 46.4223 59.1517 44.3657 59.1068C42.2511 59.0834 40.1486 58.7831 38.112 58.2134C30.9649 56.3016 22.835 51.1914 15.8487 44.2051C8.86243 37.2188 3.69865 29.1068 1.76893 21.9418C-0.160793 14.7768 1.08995 8.7554 5.34248 4.50287L7.55809 2.28726C8.45233 1.39583 9.6635 0.895264 10.9262 0.895264C12.1888 0.895264 13.4 1.39583 14.2942 2.28726L22.6742 10.6494C23.1221 11.0885 23.4779 11.6126 23.7208 12.1909C23.9636 12.7693 24.0887 13.3902 24.0887 14.0175C24.0887 14.6447 23.9636 15.2657 23.7208 15.844C23.4779 16.4223 23.1221 16.9464 22.6742 17.3855L18.5289 21.5487C18.1291 21.9399 17.8741 22.4555 17.8059 23.0107C17.7377 23.5659 17.8604 24.1278 18.1537 24.6041C22.4134 31.6757 28.3471 37.5909 35.4318 41.8287C35.9062 42.1242 36.4669 42.2498 37.0221 42.1849C37.5772 42.1199 38.0938 41.8683 38.4872 41.4713L42.5789 37.3081C43.0203 36.8621 43.5465 36.509 44.1265 36.2697C44.7065 36.0303 45.3285 35.9095 45.9559 35.9144C46.5815 35.9036 47.2027 36.0218 47.7806 36.2616C48.3585 36.5014 48.8809 36.8576 49.3151 37.3081L57.6951 45.706C58.5889 46.5978 59.0927 47.8077 59.096 49.0703C59.0994 50.333 58.602 51.5455 57.7129 52.4421Z" stroke-width="1.83383" stroke-miterlimit="10"/>
<path d="M54.9256 29.1245C54.9256 29.1245 53.0316 7.54026 30.8577 5.05664" stroke-width="1.83383" stroke-miterlimit="10" stroke-linecap="round"/>
<path d="M48.8861 30.5179C48.8861 30.5179 48.8861 13.4185 29.4639 11.1135" stroke-width="1.83383" stroke-miterlimit="10" stroke-linecap="round"/>
<path d="M42.7934 31.8582C42.7934 31.8582 42.9542 17.8856 28.0703 17.1709" stroke-width="1.83383" stroke-miterlimit="10" stroke-linecap="round"/>
</g>

</symbol><symbol id="rating" viewBox="0 0 35 40">
<g id="rating 1" clip-path="url(#clip0_105_84)">
<path id="Vector" d="M25.2191 13.6623L22.1671 16.6302L22.8881 20.8358C22.91 20.968 22.8947 21.1038 22.8438 21.2278C22.7928 21.3519 22.7083 21.4592 22.5997 21.5379C22.4911 21.6165 22.3627 21.6633 22.229 21.673C22.0953 21.6827 21.9615 21.6549 21.8427 21.5928L18.0697 19.6102L14.2967 21.5928C14.1278 21.6818 13.9304 21.7002 13.748 21.6439C13.5655 21.5876 13.4128 21.4611 13.3235 21.2924C13.2524 21.1514 13.2272 20.9918 13.2514 20.8358L13.9723 16.6302L10.9203 13.6623C10.8531 13.5954 10.7998 13.5158 10.7634 13.4281C10.727 13.3405 10.7083 13.2465 10.7083 13.1517C10.7083 13.0568 10.727 12.9628 10.7634 12.8752C10.7998 12.7876 10.8531 12.708 10.9203 12.641C11.0273 12.5237 11.1717 12.4473 11.3288 12.4247L15.5464 11.8119L17.4689 7.99087C17.5587 7.82238 17.7097 7.69479 17.8908 7.63442C18.0719 7.57405 18.2693 7.58551 18.4422 7.66644C18.5454 7.75275 18.6241 7.86462 18.6705 7.99087L20.557 11.8119L24.7745 12.4247C24.9631 12.4572 25.1314 12.562 25.2437 12.717C25.356 12.8719 25.4032 13.0645 25.3753 13.2538C25.3551 13.4091 25.2831 13.553 25.1711 13.6623H25.2191Z" stroke-miterlimit="10"/>
<path id="Vector_2" d="M34.183 31.0493L31.131 34.0292L31.852 38.2227C31.8833 38.4107 31.839 38.6034 31.7287 38.7588C31.6183 38.9141 31.451 39.0195 31.2632 39.0518C31.1033 39.0823 30.9379 39.0568 30.7946 38.9797L27.0817 36.9971L23.2607 38.9917C23.1774 39.0375 23.0857 39.066 22.9912 39.0756C22.8967 39.0852 22.8012 39.0757 22.7104 39.0477C22.6196 39.0197 22.5354 38.9737 22.4627 38.9125C22.39 38.8513 22.3304 38.7761 22.2874 38.6913C22.2092 38.5528 22.1836 38.3907 22.2153 38.2347L22.9362 34.0412L19.8722 31.0493C19.805 30.9823 19.7517 30.9027 19.7153 30.8151C19.6789 30.7274 19.6602 30.6335 19.6602 30.5386C19.6602 30.4437 19.6789 30.3498 19.7153 30.2621C19.7517 30.1745 19.805 30.0949 19.8722 30.0279C19.9831 29.9181 20.1263 29.8465 20.2807 29.8237L24.4983 29.2109L26.3848 25.3898C26.4257 25.3046 26.4833 25.2285 26.5541 25.1658C26.6249 25.1032 26.7075 25.0554 26.7971 25.0251C26.8866 24.9949 26.9813 24.9829 27.0756 24.9898C27.1699 24.9967 27.2618 25.0224 27.346 25.0654C27.4928 25.1307 27.6118 25.2456 27.6825 25.3898L29.557 29.2109L33.7745 29.8237C33.8691 29.8354 33.9604 29.866 34.0429 29.9138C34.1254 29.9616 34.1975 30.0256 34.2547 30.1019C34.3119 30.1782 34.3531 30.2652 34.3759 30.3578C34.3987 30.4504 34.4026 30.5466 34.3873 30.6407C34.3645 30.7952 34.2929 30.9383 34.183 31.0493Z" stroke-miterlimit="10"/>
<path id="Vector_3" d="M15.1859 31.0492L12.1339 34.0291L12.8548 38.2226C12.872 38.3159 12.8703 38.4116 12.8498 38.5042C12.8294 38.5968 12.7905 38.6843 12.7356 38.7616C12.6807 38.8389 12.6109 38.9044 12.5302 38.9543C12.4496 39.0041 12.3597 39.0372 12.266 39.0517C12.1101 39.0824 11.9483 39.0568 11.8094 38.9796L8.03646 36.997L4.25147 38.9917C4.16818 39.0374 4.07655 39.0659 3.98202 39.0755C3.88749 39.0851 3.79199 39.0757 3.7012 39.0476C3.6104 39.0196 3.52617 38.9736 3.4535 38.9124C3.38084 38.8512 3.32122 38.776 3.27819 38.6913C3.20635 38.5506 3.18111 38.3907 3.2061 38.2347L3.92704 34.0411L0.887043 31.0492C0.794237 30.9556 0.729381 30.8379 0.699762 30.7094C0.670144 30.581 0.676936 30.4468 0.719375 30.322C0.761815 30.1971 0.83822 30.0866 0.940007 30.0028C1.04179 29.919 1.16493 29.8653 1.29558 29.8476L5.45305 29.2108L7.33954 25.3897C7.38168 25.3041 7.44041 25.2277 7.51231 25.165C7.58421 25.1022 7.66786 25.0544 7.75839 25.0242C7.84893 24.994 7.94456 24.9821 8.03973 24.9892C8.1349 24.9962 8.22773 25.0221 8.31282 25.0653C8.45624 25.1313 8.57132 25.2463 8.63725 25.3897L10.5237 29.2108L14.7413 29.8236C14.8352 29.8368 14.9257 29.8685 15.0073 29.9168C15.089 29.9651 15.1604 30.029 15.2173 30.1049C15.2743 30.1808 15.3156 30.2672 15.3391 30.3591C15.3626 30.4511 15.3677 30.5468 15.3541 30.6407C15.3315 30.7978 15.2551 30.9422 15.1378 31.0492H15.1859Z" stroke-miterlimit="10"/>
<path id="Vector_4" d="M7.0874 6.96948L9.26227 8.97612" stroke-miterlimit="10" stroke-linecap="round"/>
<path id="Vector_5" d="M29.0401 6.96948L26.8652 8.97612" stroke-miterlimit="10" stroke-linecap="round"/>
<path id="Vector_6" d="M18.0698 1.33411V4.29" stroke-miterlimit="10" stroke-linecap="round"/>
</g>

</symbol><symbol id="service" viewBox="0 0 35 36">
<g clip-path="url(#clip0_105_70)">
<path d="M23.2039 25.438H3.98352C3.53402 25.4412 3.08838 25.355 2.67249 25.1844C2.2566 25.0138 1.87876 24.7623 1.56091 24.4445C1.24306 24.1266 0.991547 23.7488 0.820981 23.3329C0.650416 22.917 0.5642 22.4714 0.567344 22.0219V18.582C0.567344 17.6823 0.92477 16.8194 1.56099 16.1832C2.19722 15.5469 3.06012 15.1895 3.95987 15.1895H23.2039" stroke-miterlimit="10"/>
<path d="M6.87965 22.4947C7.98294 22.4947 8.87734 21.6003 8.87734 20.497C8.87734 19.3937 7.98294 18.4993 6.87965 18.4993C5.77636 18.4993 4.88196 19.3937 4.88196 20.497C4.88196 21.6003 5.77636 22.4947 6.87965 22.4947Z" stroke-miterlimit="10"/>
<path d="M18.3575 19.3859H13.381C12.8718 19.3859 12.459 19.7987 12.459 20.3079V20.3198C12.459 20.829 12.8718 21.2418 13.381 21.2418H18.3575C18.8667 21.2418 19.2795 20.829 19.2795 20.3198V20.3079C19.2795 19.7987 18.8667 19.3859 18.3575 19.3859Z" stroke-miterlimit="10"/>
<path d="M3.09705 25.4381H10.7687V30.7929C10.7687 30.9635 10.7346 31.1325 10.6682 31.2897C10.6018 31.447 10.5046 31.5893 10.3823 31.7084C10.26 31.8274 10.115 31.9207 9.956 31.9827C9.797 32.0447 9.62717 32.0742 9.45656 32.0695H4.37368C4.03509 32.0695 3.71038 31.935 3.47096 31.6956C3.23155 31.4562 3.09705 31.1315 3.09705 30.7929V25.4381Z" stroke-miterlimit="10"/>
<path d="M23.2039 15.1896H3.10876L5.99301 8.30997C6.22995 7.74815 6.62572 7.26771 7.13175 6.92755C7.63779 6.58739 8.23209 6.40232 8.84179 6.39502H20.4024" stroke-miterlimit="10"/>
<path d="M31.3011 12.6363V30.6155C31.3011 31.6908 30.8739 32.7221 30.1135 33.4825C29.3532 34.2428 28.3219 34.67 27.2466 34.67C26.1713 34.67 25.14 34.2428 24.3796 33.4825C23.6193 32.7221 23.1921 31.6908 23.1921 30.6155V12.6363C22.2799 11.9964 21.5468 11.1335 21.0626 10.1299C20.5784 9.12637 20.3592 8.01552 20.4261 6.90326C20.4268 5.56109 20.8214 4.24865 21.5611 3.12867C22.3007 2.0087 23.3528 1.13046 24.5869 0.602844V7.69524L27.2584 8.87731L29.8708 7.69524V0.602844C31.1174 1.12144 32.1825 1.99779 32.9314 3.12123C33.6804 4.24468 34.0797 5.56486 34.0789 6.91508C34.1435 8.02663 33.9221 9.13618 33.4358 10.1378C32.9495 11.1394 32.2145 11.9996 31.3011 12.6363Z" stroke-linejoin="round"/>
<path d="M27.2466 32.0457C28.0365 32.0457 28.6769 31.4054 28.6769 30.6154C28.6769 29.8255 28.0365 29.1851 27.2466 29.1851C26.4567 29.1851 25.8163 29.8255 25.8163 30.6154C25.8163 31.4054 26.4567 32.0457 27.2466 32.0457Z" stroke-miterlimit="10"/>
</g>

</symbol><symbol id="time" viewBox="0 0 60 60">
<g clip-path="url(#clip0_117_433)">
<path d="M29.9908 53.0622C42.7327 53.0622 53.0621 42.7329 53.0621 29.991C53.0621 17.249 42.7327 6.91968 29.9908 6.91968C17.2489 6.91968 6.91956 17.249 6.91956 29.991C6.91956 42.7329 17.2489 53.0622 29.9908 53.0622Z" stroke="#1E47B0" stroke-width="1.79617" stroke-miterlimit="10" stroke-linecap="round"/>
<path d="M29.9908 59.0823C46.0575 59.0823 59.0822 46.0577 59.0822 29.9909C59.0822 13.9241 46.0575 0.899414 29.9908 0.899414C13.924 0.899414 0.899292 13.9241 0.899292 29.9909C0.899292 46.0577 13.924 59.0823 29.9908 59.0823Z" stroke="#1E47B0" stroke-width="1.79617" stroke-miterlimit="10" stroke-linecap="round"/>
<path d="M29.9908 59.0823C46.0575 59.0823 59.0822 46.0577 59.0822 29.9909C59.0822 13.9241 46.0575 0.899414 29.9908 0.899414C13.924 0.899414 0.899292 13.9241 0.899292 29.9909C0.899292 46.0577 13.924 59.0823 29.9908 59.0823Z" stroke="#1E47B0" stroke-width="1.79617" stroke-miterlimit="10" stroke-linecap="round"/>
<path d="M29.9908 33.4228C31.8864 33.4228 33.4231 31.8862 33.4231 29.9906C33.4231 28.095 31.8864 26.5583 29.9908 26.5583C28.0953 26.5583 26.5586 28.095 26.5586 29.9906C26.5586 31.8862 28.0953 33.4228 29.9908 33.4228Z" stroke="#1E47B0" stroke-width="1.79617" stroke-miterlimit="10" stroke-linecap="round"/>
<path d="M24.4111 42.6553L28.5775 33.1111" stroke="#1E47B0" stroke-width="1.79617" stroke-miterlimit="10" stroke-linecap="round"/>
<path d="M19.2903 13.9126L28.0453 27.1827" stroke="#1E47B0" stroke-width="1.79617" stroke-miterlimit="10" stroke-linecap="round"/>
<path d="M29.9908 6.91968V13.7291" stroke="#1E47B0" stroke-width="1.65103" stroke-miterlimit="10" stroke-linecap="round"/>
<path d="M53.0621 29.991H46.271" stroke="#1E47B0" stroke-width="1.65103" stroke-miterlimit="10" stroke-linecap="round"/>
<path d="M29.9908 53.0621V46.271" stroke="#1E47B0" stroke-width="1.65103" stroke-miterlimit="10" stroke-linecap="round"/>
<path d="M6.91956 29.991H13.729" stroke="#1E47B0" stroke-width="1.65103" stroke-miterlimit="10" stroke-linecap="round"/>
<path d="M53.0621 29.991H46.271" stroke="#1E47B0" stroke-width="1.79617" stroke-miterlimit="10" stroke-linecap="round"/>
</g>

</symbol><symbol id="visa" viewBox="0 0 70 71">
<g clip-path="url(#clip0_113_262)">
<path d="M25.3522 45.3135L28.8642 25.1992H34.3517L30.9495 45.3135H25.3522Z" fill="#3C58BF"/>
<path d="M25.3522 45.3135L29.8519 25.1992H34.3517L30.9495 45.3135H25.3522Z" fill="#293688"/>
<path d="M50.8144 25.4229C49.7169 24.9759 47.9609 24.5289 45.7659 24.5289C40.2784 24.5289 36.3273 27.3226 36.3273 31.3454C36.3273 34.3626 39.0711 35.927 41.2661 36.9327C43.4611 37.9385 44.1196 38.6089 44.1196 39.5029C44.1196 40.8438 42.3636 41.5143 40.8271 41.5143C38.6321 41.5143 37.4249 41.1791 35.5591 40.3969L34.7908 40.0616L34.0226 44.6432C35.3396 45.2019 37.7541 45.7607 40.2784 45.7607C46.0951 45.7607 49.9364 42.967 49.9364 38.7207C49.9364 36.374 48.5097 34.5861 45.2171 33.1334C43.2416 32.1277 42.0344 31.5689 42.0344 30.5632C42.0344 29.6692 43.0221 28.7753 45.2171 28.7753C47.0829 28.7753 48.3999 29.1105 49.3877 29.5575L49.9364 29.781L50.8144 25.4229Z" fill="#3C58BF"/>
<path d="M50.8144 25.4229C49.7169 24.9759 47.9609 24.5289 45.7659 24.5289C40.2784 24.5289 37.3151 27.3226 37.3151 31.3454C37.3151 34.3626 39.0711 35.927 41.2661 36.9327C43.4611 37.9385 44.1196 38.6089 44.1196 39.5029C44.1196 40.8438 42.3636 41.5143 40.8271 41.5143C38.6321 41.5143 37.4249 41.1791 35.5591 40.3969L34.7908 40.0616L34.0226 44.6432C35.3396 45.2019 37.7541 45.7607 40.2784 45.7607C46.0951 45.7607 49.9364 42.967 49.9364 38.7207C49.9364 36.374 48.5097 34.5861 45.2171 33.1334C43.2416 32.1277 42.0344 31.5689 42.0344 30.5632C42.0344 29.6692 43.0221 28.7753 45.2171 28.7753C47.0829 28.7753 48.3999 29.1105 49.3877 29.5575L49.9364 29.781L50.8144 25.4229Z" fill="#293688"/>
<path d="M60.2533 25.1992C58.9363 25.1992 57.9485 25.311 57.3997 26.6519L49.1685 45.3135H55.095L56.1925 41.9611H63.2165L63.875 45.3135H69.143L64.5335 25.1992H60.2533V25.1992ZM57.729 38.6087C58.0582 37.603 59.924 32.6862 59.924 32.6862C59.924 32.6862 60.363 31.457 60.6923 30.6748L61.0215 32.5745C61.0215 32.5745 62.119 37.603 62.3385 38.7205H57.729V38.6087Z" fill="#3C58BF"/>
<path d="M61.5703 25.1992C60.2533 25.1992 59.2655 25.311 58.7167 26.6519L49.1685 45.3135H55.095L56.1925 41.9611H63.2165L63.875 45.3135H69.143L64.5335 25.1992H61.5703V25.1992ZM57.729 38.6087C58.168 37.4913 59.924 32.6862 59.924 32.6862C59.924 32.6862 60.363 31.457 60.6923 30.6748L61.0215 32.5745C61.0215 32.5745 62.119 37.603 62.3385 38.7205H57.729V38.6087Z" fill="#293688"/>
<path d="M15.2555 39.2779L14.7067 36.3725C13.719 33.0202 10.5362 29.3325 7.02417 27.5446L11.9629 45.424H17.8895L26.7793 25.3097H20.8527L15.2555 39.2779Z" fill="#3C58BF"/>
<path d="M15.2555 39.2779L14.7067 36.3725C13.719 33.0202 10.5362 29.3325 7.02417 27.5446L11.9629 45.424H17.8895L26.7793 25.3097H21.9502L15.2555 39.2779Z" fill="#293688"/>
<path d="M0 25.1992L0.987755 25.4227C8.01179 27.0989 12.8408 31.3453 14.7066 36.3738L12.7311 26.8754C12.4018 25.5345 11.4141 25.1992 10.2068 25.1992H0V25.1992Z" fill="#FFBC00"/>
<path d="M0 25.1992C7.02404 26.8754 12.8408 31.2335 14.7066 36.2621L12.8408 28.3281C12.5116 26.9872 11.4141 26.2049 10.2068 26.2049L0 25.1992Z" fill="#F7981D"/>
<path d="M0 25.1992C7.02404 26.8754 12.8408 31.2335 14.7066 36.2621L13.3896 31.904C13.0603 30.563 12.6213 29.2221 11.0848 28.6633L0 25.1992Z" fill="#ED7C00"/>
<path d="M20.7429 38.6078L17.0113 34.8085L15.2553 39.0548L14.8163 36.2612C13.8286 32.9088 10.6458 29.2212 7.13379 27.4332L12.0726 45.3126H17.9991L20.7429 38.6078Z" fill="#051244"/>
<path d="M30.9498 45.312L26.2305 40.3951L25.3525 45.312H30.9498Z" fill="#051244"/>
<path d="M43.5709 38.3842C44.0099 38.8311 44.2294 39.1664 44.1196 39.6134C44.1196 40.9543 42.3636 41.6248 40.8271 41.6248C38.6321 41.6248 37.4249 41.2896 35.5591 40.5073L34.7908 40.1721L34.0226 44.7537C35.3396 45.3124 37.7541 45.8711 40.2784 45.8711C43.7904 45.8711 46.6439 44.8654 48.2902 43.0775L43.5709 38.3842Z" fill="#051244"/>
<path d="M49.9362 45.313H55.0944L56.1919 41.9607H63.216L63.8745 45.313H69.1425L67.2767 37.1556L60.6917 30.6743L61.021 32.4623C61.021 32.4623 62.1185 37.4908 62.338 38.6083H57.7284C58.1674 37.4908 59.9235 32.6857 59.9235 32.6857C59.9235 32.6857 60.3625 31.4565 60.6917 30.6743" fill="#051244"/>
</g>

</symbol></svg>