<svg width="70" height="71" viewBox="0 0 70 71" fill="none" xmlns="http://www.w3.org/2000/svg">
<g clip-path="url(#clip0_113_262)">
<path d="M25.3522 45.3135L28.8642 25.1992H34.3517L30.9495 45.3135H25.3522Z" fill="#3C58BF"/>
<path d="M25.3522 45.3135L29.8519 25.1992H34.3517L30.9495 45.3135H25.3522Z" fill="#293688"/>
<path d="M50.8144 25.4229C49.7169 24.9759 47.9609 24.5289 45.7659 24.5289C40.2784 24.5289 36.3273 27.3226 36.3273 31.3454C36.3273 34.3626 39.0711 35.927 41.2661 36.9327C43.4611 37.9385 44.1196 38.6089 44.1196 39.5029C44.1196 40.8438 42.3636 41.5143 40.8271 41.5143C38.6321 41.5143 37.4249 41.1791 35.5591 40.3969L34.7908 40.0616L34.0226 44.6432C35.3396 45.2019 37.7541 45.7607 40.2784 45.7607C46.0951 45.7607 49.9364 42.967 49.9364 38.7207C49.9364 36.374 48.5097 34.5861 45.2171 33.1334C43.2416 32.1277 42.0344 31.5689 42.0344 30.5632C42.0344 29.6692 43.0221 28.7753 45.2171 28.7753C47.0829 28.7753 48.3999 29.1105 49.3877 29.5575L49.9364 29.781L50.8144 25.4229Z" fill="#3C58BF"/>
<path d="M50.8144 25.4229C49.7169 24.9759 47.9609 24.5289 45.7659 24.5289C40.2784 24.5289 37.3151 27.3226 37.3151 31.3454C37.3151 34.3626 39.0711 35.927 41.2661 36.9327C43.4611 37.9385 44.1196 38.6089 44.1196 39.5029C44.1196 40.8438 42.3636 41.5143 40.8271 41.5143C38.6321 41.5143 37.4249 41.1791 35.5591 40.3969L34.7908 40.0616L34.0226 44.6432C35.3396 45.2019 37.7541 45.7607 40.2784 45.7607C46.0951 45.7607 49.9364 42.967 49.9364 38.7207C49.9364 36.374 48.5097 34.5861 45.2171 33.1334C43.2416 32.1277 42.0344 31.5689 42.0344 30.5632C42.0344 29.6692 43.0221 28.7753 45.2171 28.7753C47.0829 28.7753 48.3999 29.1105 49.3877 29.5575L49.9364 29.781L50.8144 25.4229Z" fill="#293688"/>
<path d="M60.2533 25.1992C58.9363 25.1992 57.9485 25.311 57.3997 26.6519L49.1685 45.3135H55.095L56.1925 41.9611H63.2165L63.875 45.3135H69.143L64.5335 25.1992H60.2533V25.1992ZM57.729 38.6087C58.0582 37.603 59.924 32.6862 59.924 32.6862C59.924 32.6862 60.363 31.457 60.6923 30.6748L61.0215 32.5745C61.0215 32.5745 62.119 37.603 62.3385 38.7205H57.729V38.6087Z" fill="#3C58BF"/>
<path d="M61.5703 25.1992C60.2533 25.1992 59.2655 25.311 58.7167 26.6519L49.1685 45.3135H55.095L56.1925 41.9611H63.2165L63.875 45.3135H69.143L64.5335 25.1992H61.5703V25.1992ZM57.729 38.6087C58.168 37.4913 59.924 32.6862 59.924 32.6862C59.924 32.6862 60.363 31.457 60.6923 30.6748L61.0215 32.5745C61.0215 32.5745 62.119 37.603 62.3385 38.7205H57.729V38.6087Z" fill="#293688"/>
<path d="M15.2555 39.2779L14.7067 36.3725C13.719 33.0202 10.5362 29.3325 7.02417 27.5446L11.9629 45.424H17.8895L26.7793 25.3097H20.8527L15.2555 39.2779Z" fill="#3C58BF"/>
<path d="M15.2555 39.2779L14.7067 36.3725C13.719 33.0202 10.5362 29.3325 7.02417 27.5446L11.9629 45.424H17.8895L26.7793 25.3097H21.9502L15.2555 39.2779Z" fill="#293688"/>
<path d="M0 25.1992L0.987755 25.4227C8.01179 27.0989 12.8408 31.3453 14.7066 36.3738L12.7311 26.8754C12.4018 25.5345 11.4141 25.1992 10.2068 25.1992H0V25.1992Z" fill="#FFBC00"/>
<path d="M0 25.1992C7.02404 26.8754 12.8408 31.2335 14.7066 36.2621L12.8408 28.3281C12.5116 26.9872 11.4141 26.2049 10.2068 26.2049L0 25.1992Z" fill="#F7981D"/>
<path d="M0 25.1992C7.02404 26.8754 12.8408 31.2335 14.7066 36.2621L13.3896 31.904C13.0603 30.563 12.6213 29.2221 11.0848 28.6633L0 25.1992Z" fill="#ED7C00"/>
<path d="M20.7429 38.6078L17.0113 34.8085L15.2553 39.0548L14.8163 36.2612C13.8286 32.9088 10.6458 29.2212 7.13379 27.4332L12.0726 45.3126H17.9991L20.7429 38.6078Z" fill="#051244"/>
<path d="M30.9498 45.312L26.2305 40.3951L25.3525 45.312H30.9498Z" fill="#051244"/>
<path d="M43.5709 38.3842C44.0099 38.8311 44.2294 39.1664 44.1196 39.6134C44.1196 40.9543 42.3636 41.6248 40.8271 41.6248C38.6321 41.6248 37.4249 41.2896 35.5591 40.5073L34.7908 40.1721L34.0226 44.7537C35.3396 45.3124 37.7541 45.8711 40.2784 45.8711C43.7904 45.8711 46.6439 44.8654 48.2902 43.0775L43.5709 38.3842Z" fill="#051244"/>
<path d="M49.9362 45.313H55.0944L56.1919 41.9607H63.216L63.8745 45.313H69.1425L67.2767 37.1556L60.6917 30.6743L61.021 32.4623C61.021 32.4623 62.1185 37.4908 62.338 38.6083H57.7284C58.1674 37.4908 59.9235 32.6857 59.9235 32.6857C59.9235 32.6857 60.3625 31.4565 60.6917 30.6743" fill="#051244"/>
</g>
<defs>
<clipPath id="clip0_113_262">
<rect width="69.1429" height="70.4" fill="white"/>
</clipPath>
</defs>
</svg>
